<svg width="27" height="28" viewBox="0 0 27 28" fill="none" xmlns="http://www.w3.org/2000/svg">
<path d="M13.5986 1.01125C12.3387 0.853766 11.8925 2.3892 11.8269 3.1766C9.8584 3.1766 5.92139 4.79077 5.92139 11.2475C5.92139 19.3183 1.00013 20.3026 1.00013 21.2868C1.00013 22.0742 2.18124 22.2711 2.77179 22.2711H13.7954" stroke="#494949" stroke-width="2"/>
<path d="M13.4014 1.01125C14.6613 0.853766 15.1075 2.3892 15.1731 3.1766C17.1416 3.1766 21.0786 4.79077 21.0786 11.2475C21.0786 19.3183 25.9999 20.3026 25.9999 21.2868C25.9999 22.0742 24.8188 22.2711 24.2282 22.2711H13.2046" stroke="#494949" stroke-width="2"/>
<path d="M16.945 22.2598H10.2521C10.0552 23.5065 10.4489 26.0393 13.5985 26.1968C16.7481 26.3543 17.1418 23.6377 16.945 22.2598Z" stroke="#494949" stroke-width="2"/>
</svg>
