<svg width="997" height="798" viewBox="0 0 997 798" fill="none" xmlns="http://www.w3.org/2000/svg">
<path d="M943.205 360.872C943.367 362.258 943.078 363.66 942.381 364.869C941.046 367.103 938.828 368.593 935.726 369.337C933.214 369.964 931.035 369.906 929.19 369.161C928.16 368.712 927.237 368.051 926.481 367.221C925.767 366.391 925.316 365.368 925.186 364.282C924.95 362.635 925.441 361.068 926.658 359.578C927.778 358.311 929.166 357.307 930.721 356.639C933.03 355.452 935.709 355.199 938.2 355.934C939.691 356.325 940.751 356.796 941.38 357.345C942.419 358.242 943.073 359.506 943.205 360.872ZM967.996 265.517C967.821 264.321 968.049 263.101 968.644 262.048C969.428 260.677 970.717 259.665 972.236 259.226C973.738 258.751 975.326 258.611 976.888 258.815C977.11 258.914 977.353 258.954 977.595 258.932C978.856 259.068 980.046 259.581 981.01 260.402C981.992 261.203 982.693 262.294 983.013 263.518C983.326 264.742 983.265 266.032 982.836 267.222C982.394 268.399 981.616 269.421 980.598 270.161C979.224 271.18 977.399 271.65 975.122 271.572C973.898 271.624 972.681 271.361 971.589 270.808C970.68 270.377 969.906 269.706 969.351 268.868C968.62 267.885 968.153 266.731 967.996 265.517ZM894.918 284.153C898.569 285.289 901.356 286.426 903.28 287.562C903.662 287.782 904.035 287.997 904.398 288.209C870.608 288.949 837.71 299.177 809.473 317.721L814.773 273.982C825.665 271.971 837.619 271.814 850.635 273.512C862.569 275.079 877.33 278.626 894.918 284.153ZM577.694 293.911L580.109 294.499L579.873 296.498C579.128 295.646 578.402 294.783 577.694 293.911ZM679.215 302.495C682.054 302.886 684.567 303.337 686.753 303.847C683.929 304.216 681.134 304.786 678.391 305.552C677.791 304.412 677.202 303.256 676.624 302.083C677.451 302.224 678.314 302.362 679.215 302.495ZM609.788 90.444L615.853 87.4458L628.219 94.5593L609.788 90.444ZM219.074 370.16C214.245 367.848 209.671 366.535 205.353 366.221C203.805 366.086 202.249 366.086 200.701 366.221C219.501 363.812 234.301 364.713 245.102 368.926C257.782 373.864 267.596 381.017 274.545 390.384C278.981 397.438 282.318 402.69 284.556 406.139C288.599 412.331 298.355 421.698 313.822 434.24C337.016 460.171 353.995 486.586 364.76 513.487C363.825 517.458 363.137 521.483 362.698 525.539C362.108 530.768 361.814 537.372 361.815 545.35C361.831 550.139 361.949 555.411 362.169 561.164C362.404 565.397 362.561 567.906 362.64 568.69C362.659 568.89 362.678 569.125 362.699 569.395C362.703 570.225 362.664 571.381 362.581 572.864C362.27 577.729 361.348 586.116 359.813 598.025C359.656 594.346 358.596 590.192 356.633 585.562C356.358 584.935 356.084 584.308 355.809 583.681C353.703 579.105 351.344 574.65 348.742 570.336C344.696 563.652 340.314 557.176 335.611 550.935C335.061 550.23 334.511 549.505 333.962 548.76C332.464 546.791 330.756 544.557 328.839 542.058C323.631 535.291 316.879 526.59 308.582 515.956C293.097 494.8 280.484 471.692 271.071 447.232C269.893 444.215 268.774 441.197 267.714 438.179L251.52 397.85C250.814 396.831 250.087 395.832 249.341 394.852C241.019 384.035 230.93 375.804 219.074 370.16Z" fill="#00BCD4"/>
<path d="M898.51 469.572C899.744 469.531 900.96 469.88 901.984 470.571C903.672 471.708 904.654 473.471 904.928 475.862C905.125 477.704 904.791 479.742 903.927 481.976C903.263 483.835 902.221 485.536 900.865 486.973C899.216 488.501 897.43 489.266 895.506 489.266C894.069 489.216 892.702 488.629 891.679 487.619C890.561 486.711 889.843 485.404 889.677 483.975C889.573 482.845 889.693 481.707 890.03 480.624C890.148 480.193 890.54 479.095 891.208 477.331C891.639 476.156 891.993 475.274 892.268 474.686C892.628 473.798 893.082 472.951 893.622 472.158C894.957 470.277 896.586 469.415 898.51 469.572ZM810.297 427.596C813.637 423.759 816.782 419.756 819.719 415.603C825.019 408.314 828.003 404.218 828.67 403.317C838.743 390.01 851.351 378.822 865.769 370.395C868.277 368.888 870.895 367.571 873.601 366.456C876.252 365.349 879.089 364.751 881.963 364.693C884.898 364.668 887.78 365.484 890.266 367.044C891.909 368.023 893.301 369.372 894.329 370.983C887.451 373.185 880.836 376.85 874.484 381.977C866.318 388.561 859.252 396.948 853.285 407.138C848.809 414.741 844.216 424.677 839.505 436.944C836.875 443.724 832.929 453.934 827.669 467.573C816.553 493.49 801.655 516.535 782.974 536.708L789.569 482.505L793.397 450.759L794.692 440.119C800.028 437.481 805.23 433.307 810.297 427.596ZM534.648 192.913C534.491 194.716 534.334 196.656 534.177 198.733C533.868 202.171 533.573 205.444 533.294 208.55C532.652 215.648 532.043 221.88 531.468 227.245C531.388 227.784 531.329 228.313 531.292 228.832C529.899 228.847 528.427 228.847 526.875 228.832C518.788 228.715 512.762 229.028 508.797 229.773C502.319 230.979 494.586 234.153 485.595 239.297C484.929 239.685 484.261 240.076 483.593 240.473C476.26 244.797 470.45 248.129 466.162 250.467C462.993 252.185 460.657 253.361 459.155 253.994C456.132 255.209 453.836 255.307 452.265 254.288C450.93 253.23 450.479 251.642 450.911 249.526C451.35 247.578 452.214 245.751 453.443 244.176C471.933 218.819 491.798 203.181 513.036 197.263C515.706 196.557 520.927 195.499 528.7 194.088C530.829 193.719 532.812 193.327 534.648 192.913Z" fill="#4CAF50"/>
<path d="M920.652 266.633C921.666 265.589 922.885 264.763 924.232 264.207C925.579 263.651 927.026 263.376 928.483 263.4C929.948 263.39 931.399 263.671 932.754 264.227C934.108 264.782 935.339 265.6 936.374 266.633C937.41 267.667 938.229 268.896 938.785 270.248C939.341 271.6 939.622 273.049 939.613 274.511C939.616 276.341 939.166 278.144 938.303 279.758C937.44 281.373 936.19 282.75 934.666 283.767C933.142 284.783 931.389 285.408 929.565 285.586C927.74 285.764 925.9 285.489 924.207 284.786C922.515 284.083 921.022 282.973 919.863 281.555C918.703 280.138 917.913 278.456 917.561 276.66C917.209 274.864 917.307 273.009 917.846 271.26C918.385 269.51 919.349 267.921 920.652 266.633ZM612.85 148.115C612.183 146.334 612.183 144.371 612.85 142.589C613.461 140.819 614.724 139.348 616.383 138.474C617.15 138.019 618.009 137.739 618.898 137.655C619.787 137.571 620.683 137.685 621.523 137.988C622.362 138.292 623.123 138.778 623.752 139.411C624.38 140.044 624.86 140.808 625.157 141.649C625.864 143.382 625.864 145.323 625.157 147.057C624.554 148.861 623.293 150.373 621.624 151.29C620.863 151.729 620.014 151.994 619.138 152.065C618.263 152.137 617.382 152.012 616.56 151.702C615.72 151.405 614.954 150.931 614.314 150.312C613.673 149.693 613.174 148.944 612.85 148.115ZM619.681 116.546C620.292 114.776 621.555 113.304 623.214 112.431C623.981 111.975 624.84 111.695 625.729 111.611C626.618 111.527 627.514 111.641 628.354 111.945C629.193 112.249 629.954 112.734 630.583 113.367C631.211 114 631.691 114.765 631.988 115.605C632.695 117.339 632.695 119.28 631.988 121.014C631.385 122.818 630.124 124.329 628.455 125.247C627.694 125.686 626.845 125.951 625.969 126.022C625.093 126.093 624.213 125.969 623.391 125.658C622.551 125.361 621.785 124.888 621.144 124.269C620.504 123.65 620.005 122.901 619.681 122.072C619.013 120.29 619.013 118.328 619.681 116.546ZM313.823 434.24C310.339 430.399 306.727 426.559 302.988 422.717C309.701 415.271 318.18 407.942 328.427 400.73C334.708 396.341 344.228 390.344 356.987 382.741C374.582 372.236 389.363 363.986 401.329 357.991C408.092 359.636 415.038 360.407 421.998 360.284C432.166 360.166 444.316 358.402 458.449 354.993C463.278 353.739 467.027 352.622 469.696 351.642C473.344 350.343 476.793 348.542 479.943 346.292C483.16 343.992 485.817 340.998 487.716 337.533C487.905 337.184 488.082 336.831 488.246 336.474C504.914 337.302 522.717 341.025 541.656 347.644C543.991 348.458 546.464 349.359 549.076 350.348C555.853 352.988 563.548 356.26 572.159 360.166C582.46 364.865 594.06 370.49 606.962 377.039C616.107 374.584 621.387 373.487 622.802 373.746C627.581 374.716 632.173 376.443 636.405 378.861C640.959 381.408 646.121 385.112 651.892 389.972C664.306 400.415 675.72 411.987 685.988 424.54H685.929C692.838 438.688 696.43 449.27 696.705 456.286C697.001 463.156 695.982 470.02 693.702 476.509C693.623 476.783 692.603 479.468 690.64 484.563C689.423 487.737 688.677 490.442 688.402 492.676C687.735 497.144 688.284 501.905 690.051 506.961C691.425 510.998 693.662 515.407 696.764 520.189C698.491 522.932 701.161 527.028 704.772 532.476C704.877 532.642 704.995 532.799 705.126 532.946C705.518 532.947 705.93 532.927 706.362 532.887C708.679 532.594 710.978 532.182 713.252 531.652C718.434 530.594 722.066 529.948 724.146 529.712C724.286 529.695 724.423 529.675 724.558 529.654L718.729 577.978C714.639 578.028 710.55 577.851 706.48 577.449C695.449 576.234 686.419 572.961 679.392 567.631C676.073 565.111 673.12 562.143 670.618 558.813C668.54 556.15 666.688 553.318 665.083 550.347C664.429 549.148 663.781 547.854 663.139 546.467C660.533 540.836 658.29 535.043 656.426 529.125C655.418 526.076 654.456 523.019 653.541 519.954C646.231 496.279 640.932 472.031 637.7 447.467C614.074 437.336 589.574 429.366 564.504 423.658C562.635 423.234 560.77 422.822 558.91 422.423C552.872 421.121 546.826 419.945 540.773 418.896C515.724 414.6 490.341 412.554 464.926 412.782C458.03 418.676 451.774 425.277 446.259 432.476C437.034 444.469 428.436 459.343 420.467 477.097C415.795 487.483 409.239 503.297 400.799 524.539C398.566 529.856 396.348 534.872 394.144 539.589C390.134 548.264 385.632 556.705 380.659 564.868C379.598 566.615 376.477 568.28 371.296 569.865C374.084 565.907 375.458 560.89 375.418 554.815C375.329 551.258 374.915 547.716 374.182 544.233C373.826 542.436 373.394 540.535 372.886 538.531C370.72 530.017 368.006 521.652 364.76 513.487C353.996 486.586 337.017 460.171 313.823 434.24Z" fill="#5E35B1"/>
<path d="M696.175 592.381C703.146 593.317 709.935 595.299 716.314 598.26L713.31 622.775L665.435 595.144C675.329 591.86 685.852 590.914 696.175 592.381ZM580.462 483.269C577.557 482.917 575.358 483.407 573.867 484.739C572.571 485.954 572.12 487.581 572.512 489.619C572.813 491.491 573.825 493.176 575.339 494.322C576.814 495.427 578.496 496.227 580.285 496.673C581.07 496.869 582.857 497.202 585.644 497.673C597.262 499.657 608.443 503.656 618.679 509.489C625.394 513.278 631.656 517.814 637.347 523.01C634.539 524.023 631.853 525.344 629.338 526.949C623.271 530.858 618.109 537.05 613.851 545.527C597.767 535.438 581.318 528.089 564.504 523.481C560.529 522.387 556.604 521.466 552.726 520.718L561.324 450.054C572.356 452.592 585.115 456.805 599.6 462.693C607.718 466.465 612.586 470.384 614.204 474.451C615.816 478.563 616.405 481.503 615.97 483.269C615.485 485.025 614.552 486.626 613.262 487.914C611.971 489.202 610.368 490.134 608.61 490.618C605.979 491.323 602.956 491.01 599.541 489.677C597.539 488.933 594.575 487.581 590.649 485.621C587.388 484.339 583.955 483.546 580.462 483.269ZM797.283 418.72L796.4 425.715L794.692 440.119L793.397 450.759L789.569 482.505C786.829 487.043 784.12 491.178 781.443 494.91C771.836 508.321 761.158 518.335 749.408 524.951L759.655 440.06C765.82 437.346 771.835 434.305 777.674 430.948C782.644 428.1 789.18 424.024 797.283 418.72ZM579.873 296.498C587.171 305.192 595.231 313.219 603.958 320.484C611.509 326.739 619.52 332.418 627.925 337.474C630.335 338.936 632.788 340.346 635.286 341.706C632.306 347.086 629.747 352.688 627.63 358.461C625.751 363.467 624.139 368.569 622.801 373.746C621.387 373.487 616.106 374.584 606.961 377.038C594.06 370.489 582.459 364.865 572.159 360.166L579.873 296.498ZM667.261 263.635C665.087 263.579 662.967 263.422 660.901 263.165C664.771 258.169 668.014 252.72 670.559 246.939C674.524 238.63 676.447 230.89 676.33 223.718C676.266 221.061 675.911 218.419 675.27 215.84L726.03 245.117C722.221 247.253 719.021 248.978 716.432 250.29C707.912 254.641 700.041 257.893 692.818 260.049C684.024 262.636 675.505 263.831 667.261 263.635Z" fill="#6A1B9A"/>
<path d="M552.726 520.718C556.604 521.466 560.529 522.387 564.504 523.481C581.318 528.089 597.767 535.438 613.851 545.527C611.45 550.327 609.46 555.323 607.903 560.459C607.772 560.877 607.635 561.308 607.491 561.752L551.666 529.595L552.726 520.718ZM655.543 550.582C655.465 550.412 655.386 550.236 655.307 550.053C655.862 549.847 656.432 549.631 657.015 549.407C659.141 548.614 661.191 547.63 663.139 546.467C663.781 547.854 664.428 549.148 665.082 550.347C666.688 553.318 668.539 556.15 670.618 558.813C668.183 559.934 665.278 561.423 661.902 563.281C661.442 563.535 660.991 563.77 660.548 563.986C659.983 562.274 659.355 560.412 658.664 558.401C657.329 554.796 656.289 552.189 655.543 550.582ZM653.54 519.953C647.546 520.218 642.148 521.237 637.346 523.01C631.656 517.814 625.393 513.278 618.679 509.489C608.443 503.656 597.262 499.657 585.644 497.673C582.856 497.202 581.07 496.869 580.285 496.673C578.496 496.227 576.814 495.427 575.339 494.322C573.825 493.175 572.813 491.491 572.512 489.619C572.119 487.581 572.571 485.954 573.866 484.739C575.358 483.407 577.557 482.917 580.462 483.269C583.955 483.546 587.388 484.339 590.649 485.621C594.575 487.581 597.539 488.933 599.541 489.677C602.957 491.01 605.979 491.324 608.61 490.618C610.369 490.134 611.971 489.202 613.262 487.914C614.552 486.626 615.485 485.025 615.971 483.269C616.405 481.503 615.816 478.563 614.204 474.451C612.586 470.384 607.718 466.465 599.6 462.693C585.115 456.805 572.356 452.592 561.324 450.054L564.504 423.658C589.574 429.366 614.073 437.335 637.7 447.467C640.931 472.03 646.23 496.278 653.54 519.953Z" fill="#302644"/>
<path d="M655.307 550.053C655.386 550.236 655.465 550.412 655.543 550.582C656.289 552.189 657.329 554.796 658.664 558.401C659.355 560.412 659.983 562.274 660.548 563.986C655.251 566.878 651.207 568.739 648.417 569.571C643.471 571.021 639.074 570.825 635.227 568.983C635.109 564.358 637.464 560.263 642.293 556.696C645.125 554.621 649.463 552.406 655.307 550.053ZM770.136 643.233L767.133 667.748L729.858 686.384L725.854 684.091C727.422 682.972 728.992 681.777 730.565 680.505C731.915 679.452 733.27 678.335 734.628 677.154C737.925 674.176 743.323 668.865 750.822 661.222C757.613 654.325 763.109 649.092 767.31 645.526C768.235 644.744 769.177 643.98 770.136 643.233ZM781.443 494.91C784.12 491.178 786.829 487.043 789.569 482.505L782.974 536.708L777.203 584.739C776.222 585.623 775.28 586.544 774.376 587.502C769.469 592.597 763.6 602.003 756.769 615.72C750.135 628.85 744.03 638.06 738.455 643.351C737.256 644.493 735.998 645.572 734.686 646.584L749.408 524.951C761.158 518.335 771.836 508.321 781.443 494.91ZM814.773 273.982L809.473 317.721L800.875 388.679L797.283 418.72C789.18 424.024 782.644 428.1 777.674 430.948C771.835 434.305 765.82 437.346 759.654 440.06L785.624 225.423L822.899 206.787L814.773 273.982Z" fill="#4A148C"/>
<path d="M637.347 523.01C642.149 521.237 647.547 520.218 653.541 519.953C654.456 523.019 655.418 526.076 656.426 529.124C658.29 535.042 660.532 540.835 663.139 546.467C661.191 547.63 659.142 548.614 657.015 549.406C656.432 549.631 655.863 549.847 655.307 550.053C649.463 552.406 645.125 554.62 642.293 556.696C637.465 560.263 635.109 564.358 635.227 568.983C639.074 570.825 643.471 571.021 648.418 569.571C651.207 568.739 655.251 566.877 660.548 563.986C660.991 563.77 661.442 563.534 661.903 563.28C665.278 561.423 668.183 559.933 670.618 558.812C673.12 562.143 676.073 565.111 679.392 567.631C686.419 572.961 695.449 576.234 706.48 577.449C710.55 577.851 714.639 578.027 718.729 577.978L716.314 598.26C709.936 595.299 703.146 593.317 696.175 592.381C685.853 590.914 675.33 591.86 665.436 595.144L607.491 561.752C607.635 561.308 607.772 560.877 607.903 560.459C609.46 555.322 611.45 550.327 613.851 545.526C618.109 537.05 623.271 530.858 629.338 526.949C631.853 525.344 634.539 524.023 637.347 523.01ZM622.802 373.746C624.14 368.569 625.751 363.467 627.63 358.461C634.836 359.825 641.91 361.812 648.771 364.399C662.747 369.768 675.054 378.096 685.693 389.384C694.384 398.5 701.277 409.17 706.009 420.836C704.497 420.818 703.339 420.818 702.535 420.836C695.795 420.955 690.279 422.189 685.987 424.539C675.72 411.987 664.306 400.414 651.892 389.972C646.121 385.112 640.959 381.408 636.405 378.861C632.173 376.443 627.58 374.716 622.802 373.746Z" fill="#FFEB3B"/>
<path d="M374.181 544.233C374.915 547.715 375.329 551.257 375.418 554.815C375.457 560.89 374.083 565.906 371.296 569.865C367.085 569.973 364.219 569.816 362.699 569.394C362.679 569.124 362.659 568.889 362.64 568.689C362.561 567.905 362.404 565.397 362.169 561.164C361.949 555.41 361.831 550.139 361.815 545.35C361.814 537.371 362.108 530.767 362.698 525.538C363.137 521.482 363.825 517.457 364.76 513.486C368.006 521.651 370.72 530.016 372.886 538.53C373.394 540.535 373.826 542.436 374.181 544.233ZM199.876 366.339C200.153 366.316 200.429 366.277 200.701 366.221C202.249 366.086 203.805 366.086 205.353 366.221C209.671 366.535 214.245 367.848 219.074 370.16C230.929 375.804 241.019 384.034 249.341 394.851C250.087 395.831 250.814 396.83 251.52 397.85L267.714 438.178C268.774 441.196 269.893 444.214 271.071 447.232C280.484 471.691 293.097 494.799 308.582 515.956C316.879 526.59 323.631 535.29 328.839 542.058C330.756 544.557 332.464 546.791 333.962 548.76C334.511 549.504 335.061 550.229 335.611 550.935C340.313 557.176 344.696 563.651 348.742 570.335C351.344 574.649 353.703 579.104 355.809 583.68C356.084 584.307 356.358 584.934 356.633 585.561C358.596 590.191 359.656 594.346 359.813 598.024C359.895 600.091 359.637 602.156 359.048 604.138C357.634 608.528 354.611 612.036 349.979 614.662C345.641 617.068 340.75 618.304 335.787 618.248C327.347 618.287 318.73 615.485 309.936 609.841C303.498 605.686 296.313 599.474 288.383 591.205C269.147 571.06 249.42 546.369 229.202 517.131C213.263 493.89 201.722 473.255 194.577 455.227C184.998 431.202 181.582 408.666 184.33 387.62C185.469 378.88 188.158 372.864 192.398 369.572C194.573 367.873 197.148 366.76 199.876 366.339Z" fill="#141E3F"/>
<path d="M401.329 357.991C405.397 355.946 409.146 354.163 412.576 352.641C433.971 343.117 453.973 337.768 472.582 336.592C477.797 336.258 483.026 336.219 488.246 336.474C488.082 336.831 487.905 337.184 487.716 337.532C485.816 340.998 483.16 343.992 479.943 346.292C476.793 348.542 473.344 350.343 469.696 351.642C467.027 352.621 463.278 353.738 458.449 354.993C444.316 358.402 432.166 360.166 421.998 360.284C415.038 360.407 408.091 359.636 401.329 357.991ZM710.779 285.622C710.121 282.915 710.141 280.089 710.838 277.392C711.307 275.607 712 273.889 712.899 272.277C715.224 268.074 718.669 264.595 722.851 262.224C726.462 260.147 730.82 258.579 735.923 257.521C738.235 257.043 741.316 256.572 745.169 256.11L756.828 262.871L747.642 339.002C742.925 338.818 738.921 338.269 735.629 337.356C729.701 335.71 725.088 332.966 721.791 329.126C719.828 326.617 718.807 324.266 718.728 322.071C718.728 319.68 719.71 317.583 721.673 315.781C722.322 315.196 723.033 314.683 723.793 314.252C724.962 315.092 726.14 315.973 727.326 316.897C727.799 317.264 728.29 317.656 728.798 318.073C729.013 313.674 729.072 309.069 728.975 304.258C726.432 302.931 723.992 301.418 721.673 299.731C715.666 295.42 712.035 290.717 710.779 285.622ZM718.434 275.216C718.036 275.975 717.911 276.846 718.081 277.686C718.176 278.214 718.422 278.703 718.787 279.096C719.479 279.678 720.253 280.154 721.084 280.507C723.283 281.213 726.188 281.448 729.799 281.213C735.217 280.86 738.2 280.684 738.75 280.684L741.106 280.743H741.4C742.303 280.787 743.208 280.767 744.109 280.684C746.268 280.527 747.878 279.763 748.938 278.391C749.52 277.437 749.807 276.333 749.762 275.216C749.722 274.078 749.354 272.976 748.702 272.042C747.956 270.592 746.366 269.063 743.932 267.456C743.657 267.3 743.402 267.162 743.167 267.045C740.742 266.77 738.297 266.731 735.865 266.927C732.895 267.169 729.956 267.701 727.091 268.515C722.183 269.925 719.298 272.159 718.434 275.216ZM664.023 117.722L662.02 114.018L822.899 206.787L785.624 225.422L655.249 150.232L664.023 117.722ZM602.722 209.902C604.484 205.402 606.798 201.136 609.611 197.204C613.076 192.583 617.06 189.232 621.565 187.151C622.319 186.808 623.084 186.495 623.862 186.21C626.165 185.41 628.558 184.897 630.987 184.682C634.47 184.388 637.976 184.566 641.41 185.211C642.816 185.481 644.19 185.814 645.532 186.21C653.179 188.434 659.872 192.627 665.613 198.791C670.486 204.044 673.705 209.727 675.27 215.84C675.911 218.419 676.267 221.061 676.33 223.718C676.448 230.89 674.524 238.63 670.559 246.939C668.014 252.72 664.771 258.169 660.902 263.165C660.304 263.931 659.695 264.675 659.076 265.399C661.682 271.067 664.332 276.711 667.026 282.33C670.168 288.959 673.367 295.544 676.625 302.083C677.202 303.255 677.791 304.412 678.391 305.551C685.608 320.025 693.067 334.291 700.768 348.349C706.635 350.402 712.611 352.129 718.67 353.523C719.32 355.444 719.85 357.129 720.26 358.579C721.513 362.709 722.284 366.97 722.556 371.277C722.818 375.602 722.319 379.939 721.084 384.093C720.334 386.629 719.223 389.044 717.786 391.265C707.14 391.048 698.719 389.637 692.524 387.032C687.891 385.073 683.161 382.035 678.332 377.92C675.506 375.529 671.403 371.551 666.025 365.986C655.239 354.729 646.131 344.735 638.701 336.004C636.417 333.311 634.297 330.725 632.342 328.244C632.08 329.445 631.726 330.624 631.282 331.771C630.545 333.793 629.448 335.665 628.043 337.297C627.996 337.35 627.956 337.41 627.925 337.473C619.521 332.418 611.509 326.739 603.958 320.483C595.232 313.219 587.171 305.192 579.873 296.498L580.109 294.499L613.969 303.258L614.263 302.024C610.324 295.199 606.956 288.061 604.193 280.683C602.285 275.589 600.75 270.362 599.6 265.046L599.541 264.987C597.199 260.648 595.946 255.806 595.89 250.878C595.749 245.805 595.789 241.317 596.008 237.415C596.017 237.238 596.037 237.061 596.067 236.886C596.595 228.115 598.813 219.121 602.721 209.902L602.722 209.902ZM555.141 151.114C556.197 150.994 557.261 150.974 558.321 151.055C562.01 151.352 565.602 152.939 569.097 155.817C570.202 156.726 571.245 157.708 572.218 158.756C574.777 161.656 576.773 165.005 578.107 168.633C579.503 172.54 580.394 176.61 580.757 180.743C581.009 184.049 581.029 187.369 580.815 190.678C580.462 196.361 579.265 203.847 577.223 213.136C576.75 215.166 576.279 217.028 575.81 218.721C575.139 221.296 574.313 223.828 573.337 226.304C571.374 230.968 568.842 234.613 565.74 237.239C564.718 238.09 563.613 238.838 562.443 239.473C559.634 241.055 556.594 242.186 553.433 242.824C550.285 243.489 545.77 243.979 539.889 244.294C539.518 244.333 539.144 244.353 538.77 244.352C533.42 240.922 530.927 235.748 531.292 228.832C531.329 228.313 531.388 227.784 531.468 227.245C532.043 221.88 532.652 215.648 533.294 208.55C533.574 205.443 533.868 202.171 534.177 198.732C534.334 196.656 534.491 194.716 534.648 192.912C535.051 188.137 535.365 184.434 535.59 181.801C535.723 180.094 535.821 178.84 535.885 178.039C536.105 174.066 536.898 170.145 538.24 166.399C539.553 162.574 541.776 159.124 544.718 156.346C547.859 153.367 551.333 151.623 555.141 151.114Z" fill="#F06292"/>
<path d="M797.813 573.157C805.27 570.822 813.144 570.12 820.897 571.099C822.362 571.322 823.834 571.596 825.313 571.922C832.65 573.43 839.301 577.266 844.275 582.857C849.771 589.01 851.538 595.36 849.575 601.905C848.554 605.393 846.493 608.528 843.392 611.311C840.456 613.883 837.059 615.878 833.381 617.19C829.806 618.526 826.122 619.549 822.369 620.247C819.856 620.795 816.068 621.579 811.004 622.598C796.718 625.963 783.096 632.841 770.136 643.233C769.177 643.98 768.235 644.744 767.31 645.526C763.109 649.092 757.613 654.325 750.822 661.222C743.323 668.865 737.925 674.176 734.628 677.154C733.27 678.335 731.916 679.452 730.565 680.505C728.992 681.777 727.422 682.972 725.854 684.091C715.168 691.672 704.686 695.924 694.408 696.848C686.749 697.508 679.067 695.892 672.325 692.204C665.023 688.285 660.116 682.876 657.604 675.978C655.013 668.728 655.994 661.477 660.548 654.227C661.757 652.275 663.201 650.478 664.847 648.877L679.922 657.577C688.607 659.014 697.459 659.153 706.185 657.989C717.457 656.415 726.957 652.613 734.687 646.584C735.998 645.572 737.256 644.493 738.455 643.351C744.03 638.06 750.135 628.849 756.769 615.72C763.6 602.003 769.469 592.596 774.376 587.501C775.28 586.544 776.222 585.623 777.203 584.738C783.109 579.374 790.155 575.414 797.813 573.157ZM458.154 260.519C461.266 257.544 463.96 254.162 466.163 250.466C470.45 248.128 476.261 244.797 483.593 240.472C484.261 240.076 484.929 239.684 485.596 239.296C490.983 239.479 495.616 240.557 499.493 242.53C501.809 243.705 503.478 245.136 504.498 246.821C505.045 247.79 505.329 248.884 505.323 249.996C505.312 251.131 504.918 252.229 504.204 253.112C503.445 253.897 502.489 254.465 501.436 254.758C500.37 255.049 499.289 255.284 498.197 255.463C490.974 256.757 483.75 259.951 476.527 265.046C470.992 268.965 465.005 274.354 458.567 281.213C456.525 283.447 454.955 285.093 453.856 286.151C452.226 287.707 450.451 289.105 448.556 290.325C446.679 291.56 444.579 292.419 442.373 292.853C440.196 293.368 437.923 293.307 435.777 292.676C433.604 291.99 431.733 290.579 430.478 288.679C429.104 286.641 428.652 284.544 429.123 282.388C429.594 280.233 430.968 278.312 433.245 276.627C434.502 275.687 436.759 274.413 440.017 272.806C447.084 269.475 453.129 265.379 458.154 260.519Z" fill="#CDDC39"/>
<path d="M874.484 381.976C880.836 376.85 887.451 373.185 894.329 370.983C894.793 371.816 895.15 372.705 895.389 373.628C896.017 376.293 895.585 379.311 894.093 382.682C893.701 383.583 892.111 386.444 889.323 391.265C884.22 400.083 881.119 411.821 880.019 426.479C879.784 429.928 879.509 436.218 879.195 445.35C878.959 453.345 878.606 459.577 878.135 464.045C875.151 493.557 862.962 521.717 841.566 548.524C835.176 556.49 828.271 564.031 820.897 571.099C813.144 570.119 805.27 570.821 797.813 573.157C790.155 575.414 783.109 579.373 777.203 584.738L782.974 536.708C801.655 516.534 816.553 493.489 827.669 467.572C832.929 453.933 836.875 443.724 839.505 436.943C844.216 424.676 848.809 414.741 853.285 407.138C859.252 396.948 866.318 388.561 874.484 381.976Z" fill="#009688"/>
<path d="M735.276 419.484C736.184 419.402 737.068 419.343 737.925 419.307L724.558 529.653C724.423 529.675 724.286 529.695 724.146 529.712C722.065 529.947 718.434 530.594 713.252 531.652C710.978 532.182 708.678 532.594 706.362 532.887C705.93 532.927 705.518 532.946 705.126 532.946C704.995 532.799 704.876 532.642 704.772 532.475C701.16 527.028 698.491 522.932 696.764 520.189C693.662 515.407 691.424 510.998 690.05 506.961C688.284 501.905 687.734 497.143 688.402 492.675C688.676 490.442 689.422 487.737 690.639 484.563C692.602 479.468 693.623 476.783 693.701 476.509C695.982 470.02 697.001 463.156 696.705 456.285C696.43 449.27 692.838 438.688 685.928 424.539H685.987C690.279 422.189 695.795 420.955 702.534 420.836C703.339 420.818 704.497 420.818 706.009 420.836C707.895 420.884 710.329 420.962 713.311 421.071C716.922 421.241 720.54 421.202 724.146 420.953C729.092 420.209 732.802 419.719 735.276 419.484ZM718.081 277.686C717.911 276.846 718.036 275.975 718.434 275.216C719.298 272.159 722.183 269.925 727.09 268.515C729.956 267.701 732.895 267.169 735.865 266.927C737.963 271.741 739.474 275.602 740.399 278.509C740.64 279.26 740.876 280.004 741.105 280.743L738.75 280.684C738.2 280.684 735.217 280.86 729.799 281.213C726.187 281.448 723.282 281.213 721.084 280.507C720.252 280.154 719.478 279.678 718.787 279.097C718.422 278.703 718.176 278.214 718.081 277.686ZM710.838 277.392C710.141 280.089 710.121 282.915 710.779 285.622C712.035 290.717 715.666 295.42 721.673 299.731C723.992 301.418 726.432 302.931 728.975 304.258C729.072 309.069 729.013 313.674 728.798 318.073C728.29 317.656 727.799 317.264 727.326 316.898C726.14 315.973 724.962 315.092 723.793 314.252C716.938 309.474 710.146 306.299 703.418 304.728C697.955 303.482 692.317 303.184 686.753 303.847C684.567 303.337 682.054 302.886 679.215 302.494C678.314 302.361 677.45 302.224 676.624 302.083C673.367 295.544 670.168 288.959 667.026 282.33C681.341 278.725 696.078 277.064 710.838 277.392Z" fill="#222938"/>
<path d="M904.398 288.208C906.649 289.748 908.2 291.57 909.05 293.676C910.189 296.419 910.071 299.378 908.697 302.553C907.441 305.493 905.379 308.019 902.75 309.843C900.139 311.524 897.304 312.831 894.329 313.723C892.326 314.389 889.284 315.251 885.201 316.309C871.637 319.983 858.918 326.252 847.749 334.769C836.532 343.168 827.019 353.623 819.719 365.574C818.384 367.73 816.441 370.983 813.889 375.333C811.947 378.535 809.657 381.512 807.058 384.21C805.235 386.002 803.15 387.509 800.875 388.678L809.473 317.72C837.71 299.177 870.608 288.949 904.398 288.208Z" fill="#03A9F4"/>
<path d="M559.911 289.326L577.694 293.911C578.402 294.783 579.128 295.645 579.873 296.498L572.159 360.166C563.547 356.26 555.853 352.987 549.075 350.348L556.79 286.21L559.911 289.326ZM654.542 100.379L662.021 114.018L664.023 117.722L655.249 150.232L785.624 225.423L759.655 440.06L749.409 524.951L734.687 646.584C726.957 652.614 717.457 656.415 706.186 657.989C697.459 659.153 688.608 659.014 679.922 657.578L664.847 648.877L622.566 624.48L591.062 606.314L522.871 567.043L528.759 518.484L537.416 446.997L540.772 418.896C546.826 419.945 552.872 421.121 558.91 422.423C560.77 422.822 562.635 423.234 564.504 423.658L561.324 450.054L552.727 520.718L551.667 529.595L607.491 561.752L665.436 595.144L713.311 622.775L716.314 598.26L718.729 577.978L724.558 529.654L737.926 419.308C737.068 419.343 736.184 419.402 735.276 419.484C732.803 419.719 729.093 420.209 724.146 420.954C720.54 421.202 716.922 421.241 713.311 421.071C710.329 420.963 707.895 420.884 706.009 420.836C701.277 409.171 694.384 398.501 685.693 389.384C675.054 378.097 662.747 369.768 648.771 364.399C641.91 361.812 634.836 359.826 627.631 358.461C629.747 352.688 632.307 347.087 635.286 341.707C632.789 340.347 630.335 338.936 627.925 337.474C627.956 337.41 627.996 337.351 628.043 337.298C629.448 335.666 630.545 333.794 631.282 331.771C631.726 330.625 632.08 329.446 632.342 328.244C634.297 330.725 636.417 333.312 638.701 336.004C646.131 344.735 655.239 354.729 666.025 365.987C671.403 371.552 675.506 375.53 678.332 377.921C683.161 382.036 687.892 385.073 692.524 387.033C698.72 389.637 707.14 391.048 717.786 391.266C719.223 389.044 720.334 386.629 721.084 384.093C722.319 379.94 722.818 375.603 722.556 371.278C722.284 366.97 721.513 362.709 720.26 358.579C719.85 357.129 719.32 355.444 718.67 353.523C712.612 352.13 706.635 350.403 700.768 348.35C693.067 334.292 685.608 320.026 678.391 305.552C681.134 304.786 683.929 304.216 686.753 303.847C692.318 303.184 697.955 303.483 703.418 304.729C710.146 306.299 716.938 309.474 723.793 314.253C723.033 314.684 722.322 315.196 721.673 315.781C719.71 317.584 718.729 319.681 718.729 322.071C718.807 324.266 719.828 326.618 721.791 329.126C725.089 332.967 729.701 335.71 735.629 337.357C738.921 338.269 742.925 338.818 747.642 339.003L756.829 262.871L745.169 256.111L726.031 245.117L675.27 215.84C673.706 209.727 670.486 204.044 665.613 198.792C659.872 192.628 653.179 188.434 645.532 186.211C644.191 185.815 642.817 185.482 641.41 185.212C637.976 184.567 634.47 184.389 630.987 184.682L654.542 100.379Z" fill="#E3F2FD"/>
<path d="M613.969 303.258L603.251 284.152L604.193 280.683C606.956 288.062 610.324 295.199 614.263 302.024L613.969 303.258ZM735.864 266.927C738.296 266.731 740.742 266.77 743.166 267.044C743.402 267.162 743.657 267.299 743.932 267.456C746.366 269.063 747.956 270.591 748.702 272.041C749.354 272.976 749.722 274.078 749.762 275.216C749.806 276.332 749.519 277.437 748.937 278.391C747.877 279.762 746.268 280.527 744.108 280.683C743.208 280.767 742.303 280.786 741.4 280.742H741.105C740.875 280.004 740.64 279.259 740.399 278.508C739.474 275.602 737.962 271.741 735.864 266.927Z" fill="white"/>
<path d="M603.251 284.152L613.969 303.258L580.109 294.499L577.695 293.911L559.911 289.325L556.79 286.21L535.767 265.104L603.251 284.152Z" fill="#8E24AA"/>
<path d="M659.076 265.399C659.695 264.675 660.303 263.931 660.901 263.165C662.967 263.422 665.087 263.579 667.261 263.635C675.505 263.831 684.024 262.636 692.818 260.049C700.041 257.893 707.913 254.64 716.432 250.29C719.021 248.978 722.221 247.253 726.03 245.117L745.168 256.11C741.316 256.572 738.234 257.043 735.923 257.521C730.82 258.579 726.462 260.147 722.85 262.224C718.668 264.595 715.224 268.074 712.899 272.277C712 273.889 711.307 275.607 710.838 277.392C696.078 277.064 681.341 278.725 667.026 282.33C664.332 276.711 661.682 271.067 659.076 265.399Z" fill="#3949AB"/>
<path d="M571.923 82.0958L609.788 90.4438L628.219 94.559L654.542 100.379L630.987 184.682C628.558 184.897 626.164 185.41 623.861 186.21C623.084 186.495 622.318 186.808 621.565 187.151C617.06 189.232 613.075 192.583 609.611 197.204C606.797 201.136 604.483 205.402 602.721 209.902C598.813 219.121 596.595 228.116 596.067 236.886C596.036 237.061 596.017 237.238 596.008 237.415C595.788 241.318 595.749 245.805 595.89 250.878C595.946 255.807 597.199 260.648 599.541 264.987L599.6 265.046C600.75 270.363 602.285 275.589 604.193 280.684L603.251 284.152L535.767 265.105L539.889 244.294C545.77 243.979 550.285 243.489 553.433 242.824C556.594 242.186 559.634 241.055 562.442 239.473C563.613 238.838 564.717 238.09 565.74 237.239C568.842 234.613 571.374 230.968 573.337 226.304C574.313 223.828 575.139 221.296 575.81 218.721C576.278 217.028 576.749 215.166 577.223 213.136C579.264 203.847 580.462 196.361 580.815 190.678C581.029 187.369 581.009 184.049 580.756 180.743C580.393 176.61 579.503 172.54 578.106 168.633C576.773 165.005 574.776 161.656 572.218 158.756C571.244 157.708 570.202 156.726 569.097 155.817C565.602 152.939 562.009 151.352 558.32 151.055L571.923 82.0958ZM623.214 112.431C621.555 113.304 620.291 114.776 619.681 116.546C619.013 118.328 619.013 120.29 619.681 122.072C620.005 122.901 620.504 123.65 621.144 124.269C621.784 124.888 622.55 125.361 623.39 125.658C624.212 125.969 625.093 126.093 625.969 126.022C626.845 125.951 627.694 125.686 628.455 125.247C630.123 124.329 631.385 122.818 631.988 121.014C632.695 119.28 632.695 117.339 631.988 115.605C631.691 114.765 631.211 114 630.583 113.367C629.954 112.734 629.193 112.249 628.353 111.945C627.514 111.641 626.618 111.527 625.729 111.611C624.84 111.695 623.981 111.975 623.214 112.431ZM612.85 142.589C612.182 144.371 612.182 146.334 612.85 148.115C613.174 148.944 613.673 149.693 614.313 150.312C614.953 150.931 615.719 151.405 616.56 151.702C617.381 152.012 618.262 152.137 619.138 152.065C620.014 151.994 620.863 151.729 621.624 151.29C623.292 150.373 624.554 148.861 625.157 147.057C625.864 145.323 625.864 143.382 625.157 141.649C624.86 140.808 624.38 140.044 623.752 139.411C623.123 138.778 622.362 138.292 621.522 137.988C620.683 137.685 619.787 137.571 618.898 137.655C618.009 137.739 617.15 138.019 616.383 138.474C614.724 139.348 613.461 140.819 612.85 142.589Z" fill="#FFE082"/>
<path d="M618.627 155.025C620.162 155.013 621.669 154.62 623.013 153.881C625.33 152.62 627.086 150.534 627.932 148.039C628.89 145.626 628.872 142.936 627.882 140.536C627.428 139.312 626.712 138.202 625.784 137.284C624.856 136.365 623.738 135.66 622.509 135.218C621.279 134.776 619.968 134.608 618.666 134.724C617.364 134.841 616.104 135.24 614.973 135.893C612.688 137.099 610.945 139.122 610.093 141.558C610.087 141.574 610.08 141.591 610.075 141.607C609.174 144.037 609.179 146.709 610.088 149.135C610.104 149.177 610.12 149.218 610.137 149.259C610.621 150.459 611.354 151.543 612.288 152.44C613.221 153.337 614.334 154.027 615.554 154.464C616.536 154.833 617.577 155.023 618.627 155.025ZM619.499 140.569C620.15 140.575 620.783 140.786 621.307 141.172C621.83 141.559 622.218 142.1 622.415 142.72C622.633 143.244 622.743 143.807 622.741 144.374C622.738 144.942 622.622 145.503 622.4 146.025C622.04 147.176 621.248 148.143 620.19 148.723C619.801 148.956 619.365 149.097 618.914 149.135C618.463 149.174 618.009 149.109 617.586 148.946C617.133 148.793 616.719 148.543 616.374 148.212C616.029 147.881 615.761 147.479 615.588 147.033C615.183 145.921 615.193 144.701 615.617 143.596C615.975 142.513 616.739 141.611 617.749 141.078C618.279 140.762 618.882 140.587 619.499 140.569ZM625.457 128.982C626.991 128.969 628.499 128.577 629.843 127.839C632.16 126.577 633.916 124.491 634.763 121.995C635.721 119.583 635.703 116.893 634.713 114.493C634.266 113.283 633.561 112.184 632.648 111.271C631.734 110.358 630.634 109.654 629.422 109.205C628.182 108.751 626.858 108.574 625.542 108.685C624.226 108.797 622.95 109.194 621.804 109.85C619.52 111.056 617.777 113.079 616.924 115.514C616.917 115.53 616.911 115.548 616.905 115.564C616.005 117.994 616.009 120.665 616.919 123.091C616.934 123.133 616.951 123.175 616.968 123.215C617.452 124.415 618.185 125.5 619.118 126.397C620.052 127.294 621.165 127.984 622.385 128.421C623.367 128.79 624.408 128.98 625.457 128.982ZM626.33 114.526C626.981 114.531 627.614 114.743 628.137 115.129C628.661 115.515 629.049 116.057 629.246 116.677C629.464 117.201 629.574 117.763 629.572 118.331C629.569 118.898 629.453 119.46 629.231 119.982C628.871 121.133 628.079 122.1 627.02 122.68C626.632 122.912 626.196 123.053 625.744 123.092C625.293 123.131 624.839 123.066 624.417 122.903C623.964 122.75 623.55 122.499 623.205 122.169C622.859 121.838 622.591 121.436 622.419 120.99C622.014 119.878 622.024 118.658 622.447 117.553C622.806 116.47 623.57 115.568 624.58 115.034C625.111 114.719 625.713 114.544 626.33 114.526Z" fill="white"/>
<path d="M774.612 192.089C778.812 192.089 782.385 192.834 785.329 194.323C788.313 195.852 789.805 197.674 789.805 199.791C789.805 201.946 788.313 203.769 785.329 205.258C782.385 206.786 778.812 207.551 774.612 207.551C770.411 207.551 766.839 206.787 763.894 205.258C760.911 203.769 759.419 201.946 759.419 199.791C759.419 197.674 760.911 195.852 763.894 194.323C766.839 192.834 770.411 192.089 774.612 192.089Z" fill="#3949AB"/>
<path d="M636.755 609.547C637.395 609.548 638.018 609.34 638.529 608.956C639.041 608.571 639.413 608.031 639.589 607.416C639.765 606.802 639.735 606.147 639.505 605.551C639.275 604.954 638.856 604.449 638.312 604.112L603.157 582.3C602.828 582.096 602.463 581.959 602.082 581.896C601.7 581.834 601.31 581.846 600.933 581.934C600.557 582.022 600.201 582.183 599.887 582.407C599.573 582.632 599.306 582.917 599.102 583.245C598.898 583.572 598.76 583.937 598.697 584.318C598.635 584.699 598.647 585.088 598.735 585.464C598.823 585.84 598.984 586.195 599.209 586.509C599.435 586.822 599.72 587.089 600.048 587.293L635.204 609.104C635.669 609.394 636.206 609.548 636.755 609.547ZM633.636 446.527C634.104 446.527 634.565 446.416 634.98 446.202C635.396 445.989 635.755 445.68 636.028 445.301C636.3 444.922 636.479 444.484 636.548 444.022C636.617 443.561 636.576 443.09 636.427 442.647C635.386 439.568 634.312 436.057 633.233 432.212C630.572 423.689 628.668 417.048 627.549 412.39C625.933 405.895 624.915 399.266 624.506 392.586C624.487 392.2 624.393 391.821 624.228 391.471C624.062 391.121 623.829 390.808 623.542 390.548C623.255 390.288 622.92 390.087 622.555 389.957C622.19 389.827 621.803 389.77 621.416 389.79C621.029 389.809 620.65 389.905 620.3 390.071C619.95 390.237 619.637 390.47 619.377 390.758C619.118 391.045 618.918 391.381 618.789 391.745C618.66 392.11 618.604 392.496 618.625 392.883C619.052 399.924 620.122 406.912 621.823 413.759C622.972 418.545 624.912 425.315 627.587 433.88C628.668 437.74 629.774 441.35 630.847 444.526C631.044 445.109 631.419 445.615 631.919 445.974C632.42 446.334 633.02 446.527 633.636 446.527ZM739.753 361.431C740.474 361.43 741.169 361.166 741.708 360.688C742.246 360.21 742.591 359.552 742.676 358.838C742.761 358.123 742.58 357.403 742.169 356.812C741.758 356.222 741.144 355.802 740.444 355.633C735.355 354.405 728.67 352.829 720.572 350.953C720.171 350.86 719.768 350.765 719.366 350.667C718.991 350.576 718.601 350.559 718.219 350.618C717.837 350.677 717.47 350.811 717.139 351.011C716.809 351.212 716.522 351.476 716.293 351.787C716.065 352.099 715.9 352.452 715.809 352.827C715.717 353.202 715.701 353.591 715.76 353.973C715.819 354.354 715.953 354.72 716.154 355.05C716.355 355.38 716.619 355.667 716.931 355.895C717.243 356.123 717.597 356.287 717.972 356.378C718.392 356.48 718.814 356.581 719.237 356.679C727.321 358.552 733.988 360.122 739.059 361.347C739.286 361.402 739.519 361.43 739.753 361.431Z" fill="#FBD676"/>
<path d="M717.081 557.813C717.855 557.813 718.597 557.508 719.147 556.966C719.697 556.423 720.012 555.686 720.023 554.914C720.033 554.142 719.739 553.397 719.204 552.84C718.669 552.282 717.935 551.958 717.162 551.936C709.454 551.72 702.258 548.988 695.775 543.818C689.254 538.646 685.002 532.238 683.132 524.767C682.457 522.156 682.03 519.487 681.857 516.797C681.701 515.088 681.567 512.26 681.452 508.345C681.06 492.727 680.366 476.356 679.387 459.698C679.364 459.313 679.266 458.936 679.097 458.589C678.928 458.241 678.693 457.931 678.404 457.674C678.115 457.418 677.778 457.22 677.413 457.094C677.048 456.967 676.661 456.914 676.275 456.936C675.889 456.959 675.511 457.057 675.164 457.226C674.816 457.394 674.504 457.629 674.247 457.918C673.99 458.206 673.793 458.542 673.666 458.907C673.539 459.272 673.486 459.658 673.509 460.043C674.483 476.635 675.175 492.939 675.565 508.504C675.686 512.609 675.824 515.475 675.988 517.28C676.188 520.307 676.671 523.309 677.433 526.246C679.611 534.949 684.553 542.426 692.105 548.415C699.604 554.396 707.981 557.56 716.997 557.812C717.025 557.813 717.053 557.813 717.081 557.813ZM389.842 532.24C390.015 532.24 390.189 532.225 390.359 532.196C391.128 532.059 391.812 531.624 392.259 530.985C392.706 530.346 392.881 529.555 392.744 528.788C388.574 505.312 379.795 482.978 366.653 462.405C363.4 457.299 359.904 452.348 356.238 447.651C390.965 423.548 418.335 404.258 437.624 390.293C446.603 383.764 453.56 379.097 458.306 376.423C466.111 372.04 473.574 369.309 480.483 368.306C488.031 367.195 496.575 367.845 505.882 370.243C511.991 371.843 520.523 374.887 531.231 379.286L602.902 408.565C603.26 408.711 603.643 408.786 604.029 408.784C604.416 408.782 604.799 408.705 605.155 408.555C605.512 408.406 605.835 408.188 606.107 407.914C606.38 407.64 606.595 407.315 606.742 406.958C606.888 406.601 606.963 406.218 606.961 405.832C606.959 405.446 606.882 405.065 606.732 404.709C606.583 404.353 606.364 404.03 606.09 403.758C605.815 403.486 605.49 403.271 605.132 403.125L533.467 373.848C522.522 369.351 513.738 366.223 507.365 364.554C497.282 361.956 487.954 361.262 479.629 362.491C472.008 363.595 463.858 366.56 455.415 371.302C450.468 374.089 443.319 378.878 434.161 385.539C414.846 399.522 387.393 418.869 352.536 443.061C342.394 430.872 330.678 420.079 317.695 410.965C317.056 410.518 316.266 410.343 315.498 410.477C314.729 410.612 314.046 411.045 313.598 411.682C313.149 412.319 312.972 413.107 313.105 413.874C313.238 414.641 313.671 415.324 314.308 415.773C327.591 425.098 339.498 436.236 349.683 448.863L349.691 448.873C354.001 454.207 358.005 459.779 361.686 465.563C374.413 485.486 382.911 507.102 386.947 529.814C387.067 530.493 387.423 531.109 387.953 531.552C388.482 531.996 389.151 532.24 389.842 532.24ZM686.931 461.811C687.488 461.811 688.034 461.653 688.504 461.355C688.975 461.058 689.351 460.633 689.59 460.131C689.828 459.629 689.919 459.069 689.852 458.517C689.785 457.965 689.562 457.443 689.21 457.013C687.162 454.508 683.408 450.892 677.734 445.956C672.954 441.785 669.527 438.243 667.552 435.432C667.331 435.113 667.049 434.841 666.723 434.631C666.396 434.421 666.031 434.277 665.649 434.209C665.266 434.141 664.874 434.148 664.495 434.232C664.116 434.315 663.757 434.473 663.438 434.696C663.12 434.918 662.85 435.202 662.642 435.529C662.434 435.857 662.293 436.222 662.227 436.604C662.161 436.987 662.172 437.378 662.258 437.756C662.345 438.134 662.505 438.492 662.731 438.808C665.008 442.05 668.65 445.837 673.862 450.386C679.21 455.039 682.838 458.518 684.649 460.73C684.925 461.069 685.273 461.341 685.668 461.528C686.062 461.715 686.494 461.812 686.931 461.811ZM675.568 442.117C676.289 442.116 676.985 441.851 677.524 441.372C678.062 440.893 678.406 440.233 678.489 439.517C679.331 432.298 678.24 424.984 675.326 418.324C675.173 417.969 674.952 417.648 674.675 417.378C674.398 417.109 674.071 416.896 673.712 416.753C673.353 416.61 672.969 416.539 672.582 416.544C672.196 416.549 671.814 416.63 671.458 416.782C671.103 416.934 670.781 417.155 670.511 417.432C670.241 417.708 670.029 418.035 669.885 418.393C669.742 418.752 669.671 419.135 669.676 419.521C669.681 419.907 669.762 420.288 669.914 420.643C672.419 426.36 673.36 432.639 672.639 438.838C672.595 439.221 672.626 439.61 672.732 439.981C672.838 440.352 673.016 440.699 673.256 441.002C673.496 441.305 673.793 441.557 674.131 441.745C674.469 441.933 674.84 442.053 675.224 442.098C675.338 442.111 675.453 442.117 675.568 442.117ZM729.447 394.351C730.224 394.351 730.97 394.044 731.521 393.498C732.073 392.951 732.385 392.209 732.391 391.433C732.397 390.657 732.095 389.911 731.552 389.356C731.008 388.801 730.267 388.484 729.49 388.472C726.746 388.431 723.753 388.402 720.51 388.384C719.598 388.382 718.71 388.371 717.839 388.355C717.453 388.348 717.068 388.417 716.708 388.559C716.348 388.7 716.02 388.91 715.742 389.178C715.463 389.446 715.24 389.767 715.086 390.121C714.931 390.474 714.848 390.855 714.841 391.241C714.834 391.627 714.904 392.011 715.045 392.37C715.186 392.73 715.397 393.058 715.666 393.335C715.934 393.613 716.255 393.836 716.61 393.99C716.964 394.144 717.346 394.227 717.732 394.234C718.633 394.25 719.552 394.26 720.487 394.263C723.701 394.28 726.672 394.31 729.401 394.351H729.447ZM646.652 184.036C647.3 184.035 647.929 183.821 648.443 183.428C648.957 183.034 649.326 182.483 649.494 181.859L656.679 155.169C656.782 154.795 656.811 154.404 656.763 154.019C656.714 153.635 656.59 153.263 656.397 152.926C656.205 152.589 655.947 152.294 655.639 152.057C655.332 151.82 654.98 151.646 654.605 151.546C654.23 151.445 653.838 151.419 653.453 151.47C653.068 151.521 652.697 151.648 652.361 151.843C652.025 152.038 651.731 152.297 651.496 152.606C651.261 152.915 651.089 153.268 650.991 153.643L643.807 180.333C643.69 180.768 643.675 181.225 643.763 181.668C643.851 182.11 644.04 182.527 644.315 182.885C644.59 183.243 644.944 183.533 645.349 183.732C645.755 183.932 646.2 184.036 646.652 184.036Z" fill="#4FC3F7"/>
<path d="M664.844 651.845C665.493 651.846 666.123 651.633 666.638 651.24C667.152 650.846 667.522 650.294 667.691 649.669C667.859 649.044 667.816 648.381 667.568 647.783C667.32 647.185 666.882 646.685 666.321 646.362L526.026 565.468L531.653 518.835L540.31 447.378C540.403 446.604 540.185 445.825 539.703 445.211C539.221 444.598 538.515 444.201 537.74 444.108C536.964 444.014 536.184 444.232 535.569 444.713C534.955 445.194 534.557 445.899 534.463 446.673L525.807 518.131L519.948 566.692C519.879 567.263 519.98 567.842 520.237 568.357C520.495 568.872 520.899 569.3 521.398 569.588L663.374 651.451C663.82 651.71 664.328 651.846 664.844 651.845ZM348.802 599.906C349.581 599.907 350.329 599.599 350.881 599.05C351.434 598.501 351.746 597.756 351.749 596.978C351.752 596.201 351.446 595.453 350.898 594.9C350.35 594.347 349.605 594.033 348.826 594.027L306.545 593.675H306.52C305.741 593.674 304.993 593.982 304.441 594.531C303.888 595.079 303.576 595.824 303.573 596.602C303.57 597.38 303.876 598.128 304.424 598.681C304.972 599.234 305.717 599.548 306.496 599.553L348.777 599.906H348.802ZM331.961 574.391C332.738 574.391 333.484 574.083 334.035 573.535C334.586 572.987 334.898 572.244 334.902 571.467C334.906 570.691 334.602 569.945 334.057 569.391C333.512 568.837 332.769 568.522 331.992 568.513L277.109 567.925H277.077C276.299 567.925 275.553 568.233 275.002 568.781C274.451 569.329 274.14 570.072 274.136 570.849C274.131 571.625 274.435 572.371 274.98 572.925C275.526 573.479 276.268 573.794 277.046 573.803L331.928 574.391L331.961 574.391ZM249.224 536.062H249.238L310.657 535.768C311.438 535.766 312.186 535.454 312.737 534.902C313.288 534.349 313.596 533.601 313.594 532.821C313.592 532.042 313.28 531.295 312.727 530.745C312.173 530.195 311.424 529.887 310.643 529.889H310.629L249.21 530.183C248.823 530.184 248.44 530.261 248.083 530.409C247.727 530.558 247.403 530.775 247.13 531.049C246.857 531.323 246.641 531.647 246.494 532.004C246.347 532.361 246.272 532.743 246.273 533.13C246.273 533.516 246.351 533.898 246.499 534.254C246.648 534.61 246.866 534.934 247.14 535.206C247.414 535.478 247.739 535.694 248.097 535.841C248.454 535.988 248.837 536.063 249.224 536.062ZM785.861 534.004C786.569 534.005 787.254 533.75 787.788 533.285C795.621 526.499 802.619 518.807 808.633 510.37C814.656 501.936 819.634 492.804 823.459 483.175C825.314 478.603 827.58 472.1 830.182 463.872C833.104 454.541 835.209 448.096 836.443 444.709C841.7 430.438 848.319 419.722 856.114 412.871C856.405 412.616 856.644 412.307 856.815 411.96C856.987 411.613 857.088 411.236 857.113 410.85C857.139 410.464 857.087 410.077 856.962 409.711C856.837 409.345 856.641 409.007 856.385 408.716C856.129 408.426 855.818 408.189 855.47 408.019C855.122 407.849 854.744 407.749 854.357 407.725C853.971 407.701 853.583 407.754 853.217 407.88C852.851 408.006 852.513 408.203 852.223 408.46C843.684 415.964 836.514 427.481 830.913 442.689C829.644 446.17 827.509 452.701 824.565 462.11C822.011 470.183 819.798 476.538 817.992 480.99C814.34 490.185 809.587 498.906 803.836 506.96C798.093 515.016 791.411 522.363 783.931 528.844C783.478 529.237 783.155 529.758 783.007 530.339C782.858 530.919 782.891 531.532 783.101 532.093C783.311 532.655 783.688 533.138 784.181 533.48C784.674 533.822 785.26 534.005 785.861 534.004ZM227.316 494.791C227.355 494.791 227.395 494.79 227.435 494.789L283.496 492.556C283.883 492.542 284.264 492.452 284.616 492.29C284.968 492.129 285.285 491.9 285.549 491.616C285.812 491.333 286.017 491 286.151 490.637C286.285 490.274 286.347 489.888 286.331 489.501C286.316 489.115 286.224 488.735 286.061 488.384C285.898 488.033 285.668 487.717 285.383 487.455C285.097 487.193 284.763 486.99 284.399 486.857C284.035 486.724 283.648 486.665 283.261 486.682L227.201 488.915C226.431 488.945 225.703 489.276 225.175 489.836C224.646 490.396 224.359 491.14 224.374 491.909C224.389 492.679 224.705 493.411 225.255 493.95C225.805 494.489 226.545 494.791 227.316 494.791ZM264.299 457.638C265.078 457.636 265.824 457.328 266.375 456.779C266.926 456.23 267.237 455.486 267.239 454.709C267.242 453.932 266.937 453.186 266.39 452.633C265.843 452.08 265.099 451.766 264.321 451.759L203.02 451.288H202.997C202.218 451.288 201.471 451.596 200.919 452.145C200.367 452.694 200.056 453.439 200.053 454.216C200.05 454.994 200.356 455.741 200.904 456.294C201.451 456.847 202.196 457.161 202.976 457.167L264.276 457.638L264.299 457.638ZM740.049 422.54C740.782 422.539 741.487 422.266 742.029 421.773C742.57 421.281 742.908 420.604 742.977 419.876L750.102 344.451C750.138 344.067 750.098 343.679 749.985 343.31C749.871 342.941 749.685 342.599 749.439 342.301C749.192 342.004 748.889 341.758 748.548 341.578C748.206 341.397 747.832 341.286 747.447 341.249C747.062 341.213 746.674 341.253 746.304 341.367C745.935 341.48 745.591 341.665 745.293 341.912C744.996 342.158 744.749 342.46 744.569 342.801C744.388 343.142 744.276 343.516 744.24 343.9L737.115 419.325C737.041 420.101 737.28 420.874 737.778 421.475C738.276 422.076 738.992 422.454 739.769 422.527C739.864 422.535 739.957 422.54 740.049 422.54ZM191.396 420.189H191.437L247.498 419.425C248.279 419.414 249.023 419.094 249.568 418.535C250.112 417.977 250.412 417.225 250.401 416.445C250.401 416.058 250.322 415.675 250.171 415.318C250.02 414.961 249.799 414.639 249.521 414.368C249.243 414.098 248.913 413.886 248.552 413.745C248.191 413.604 247.805 413.536 247.417 413.546L191.357 414.31C190.58 414.321 189.839 414.638 189.296 415.193C188.752 415.747 188.45 416.493 188.456 417.269C188.461 418.044 188.773 418.786 189.324 419.333C189.875 419.88 190.62 420.188 191.396 420.189ZM186.331 388.62H186.38L230.604 387.915C231.384 387.901 232.127 387.579 232.67 387.019C233.212 386.459 233.51 385.707 233.498 384.928C233.485 384.149 233.164 383.407 232.603 382.865C232.043 382.322 231.29 382.024 230.51 382.036L186.285 382.741C185.509 382.754 184.769 383.072 184.227 383.627C183.684 384.182 183.383 384.928 183.389 385.703C183.395 386.478 183.708 387.22 184.259 387.766C184.81 388.312 185.555 388.619 186.331 388.62ZM550.492 341.412C551.212 341.411 551.906 341.147 552.444 340.67C552.982 340.194 553.326 339.537 553.412 338.824L559.124 291.382C559.17 290.998 559.141 290.61 559.036 290.238C558.932 289.866 558.756 289.519 558.517 289.215C558.278 288.911 557.982 288.658 557.645 288.468C557.307 288.279 556.936 288.158 556.552 288.112C556.169 288.066 555.779 288.096 555.407 288.2C555.034 288.304 554.686 288.48 554.382 288.719C554.078 288.957 553.824 289.253 553.635 289.59C553.445 289.926 553.324 290.297 553.278 290.68L547.566 338.121C547.52 338.504 547.549 338.893 547.654 339.265C547.758 339.636 547.934 339.984 548.173 340.288C548.412 340.591 548.708 340.845 549.045 341.035C549.382 341.224 549.754 341.345 550.137 341.391C550.255 341.405 550.374 341.412 550.492 341.412ZM815.598 317.956C815.986 317.957 816.371 317.88 816.729 317.731C817.088 317.582 817.413 317.363 817.687 317.088C828.133 306.588 841.043 300.485 856.058 298.952C856.835 298.873 857.549 298.488 858.042 297.884C858.535 297.279 858.767 296.504 858.688 295.728C858.608 294.953 858.224 294.24 857.618 293.748C857.012 293.256 856.236 293.024 855.459 293.103C839.053 294.779 824.939 301.455 813.508 312.945C813.099 313.357 812.82 313.881 812.708 314.451C812.597 315.02 812.656 315.61 812.88 316.146C813.103 316.682 813.48 317.14 813.964 317.462C814.448 317.784 815.016 317.956 815.598 317.956ZM597.423 285.211C598.133 285.211 598.819 284.954 599.354 284.489C599.889 284.024 600.238 283.381 600.337 282.679C600.436 281.978 600.277 281.264 599.891 280.67C599.504 280.076 598.916 279.641 598.234 279.445L543.646 263.808C542.896 263.596 542.093 263.689 541.412 264.068C540.731 264.446 540.228 265.078 540.013 265.825C539.798 266.573 539.889 267.375 540.266 268.056C540.642 268.737 541.273 269.241 542.022 269.458L596.61 285.096C596.874 285.172 597.148 285.211 597.423 285.211ZM642.472 170.75C643.124 170.749 643.757 170.533 644.273 170.134C644.788 169.736 645.156 169.178 645.32 168.548L649.795 151.323C649.99 150.568 649.877 149.768 649.481 149.097C649.085 148.426 648.438 147.939 647.683 147.744C646.928 147.548 646.126 147.66 645.454 148.054C644.781 148.448 644.292 149.093 644.095 149.846L639.62 167.072C639.507 167.507 639.496 167.961 639.587 168.401C639.677 168.841 639.868 169.254 640.143 169.609C640.418 169.964 640.771 170.251 641.175 170.449C641.579 170.647 642.023 170.75 642.472 170.75ZM649.715 142.884C650.368 142.883 651.002 142.666 651.517 142.267C652.033 141.868 652.401 141.309 652.564 140.678L654.449 133.388C654.642 132.634 654.528 131.834 654.131 131.164C653.734 130.494 653.087 130.008 652.332 129.813C651.577 129.619 650.775 129.731 650.103 130.126C649.431 130.521 648.943 131.166 648.746 131.919L646.862 139.209C646.75 139.644 646.739 140.098 646.83 140.538C646.921 140.977 647.111 141.39 647.387 141.745C647.662 142.099 648.015 142.386 648.419 142.584C648.822 142.781 649.266 142.884 649.715 142.884Z" fill="#7E57C2"/>
<path d="M449.201 555.579C449.644 555.58 450.081 555.481 450.479 555.289C450.878 555.098 451.228 554.819 451.504 554.473C466.621 535.57 489.169 524.465 518.518 521.467C519.295 521.387 520.009 521.003 520.502 520.399C520.995 519.794 521.227 519.019 521.148 518.243C521.069 517.467 520.684 516.755 520.078 516.263C519.473 515.77 518.696 515.538 517.919 515.618C486.937 518.783 463.043 530.622 446.902 550.806C446.556 551.238 446.34 551.759 446.277 552.309C446.215 552.859 446.309 553.415 446.549 553.914C446.789 554.412 447.166 554.833 447.635 555.128C448.104 555.422 448.647 555.579 449.201 555.579ZM848.28 475.804C848.918 475.804 849.538 475.596 850.048 475.214C850.558 474.831 850.929 474.294 851.107 473.682C856.068 456.612 863.239 442.542 872.419 431.862C877.512 425.896 883.568 420.821 890.337 416.847C896.973 412.933 904.325 410.384 911.962 409.348C912.734 409.245 913.434 408.841 913.909 408.223C914.383 407.606 914.593 406.827 914.493 406.055C914.392 405.284 913.989 404.583 913.373 404.108C912.756 403.632 911.976 403.42 911.203 403.517C902.788 404.654 894.686 407.459 887.373 411.767C880.036 416.071 873.471 421.569 867.95 428.034C858.219 439.354 850.649 454.162 845.452 472.045C845.325 472.483 845.301 472.945 845.384 473.393C845.466 473.842 845.652 474.265 845.926 474.63C846.2 474.994 846.556 475.29 846.964 475.494C847.373 475.698 847.823 475.804 848.28 475.804Z" fill="#EC407A"/>
<path d="M789.629 204.024C790.27 204.023 790.894 203.814 791.405 203.427C791.916 203.041 792.287 202.498 792.461 201.882C792.653 201.202 792.75 200.498 792.749 199.79C792.749 197.523 791.695 194.281 786.673 191.708C783.313 190.008 779.259 189.15 774.612 189.15C769.964 189.15 765.911 190.008 762.564 191.701C759.958 193.036 758.238 194.593 757.29 196.469C756.943 197.165 756.886 197.97 757.131 198.708C757.376 199.446 757.905 200.056 758.6 200.406C759.296 200.756 760.102 200.816 760.842 200.574C761.582 200.332 762.196 199.807 762.549 199.115C762.752 198.713 763.372 197.895 765.239 196.938C767.74 195.673 770.898 195.029 774.612 195.029C778.325 195.029 781.484 195.673 783.999 196.945C785.059 197.489 786.861 198.591 786.861 199.79C786.862 199.958 786.839 200.124 786.794 200.285C786.671 200.722 786.651 201.182 786.736 201.628C786.82 202.075 787.007 202.495 787.282 202.858C787.556 203.22 787.911 203.513 788.318 203.716C788.726 203.918 789.174 204.024 789.629 204.024Z" fill="#F29B9D"/>
<path d="M742.141 311.213C743.231 311.214 744.32 311.139 745.399 310.99C745.783 310.938 746.153 310.81 746.487 310.615C746.822 310.42 747.114 310.16 747.348 309.852C747.582 309.544 747.752 309.192 747.85 308.818C747.948 308.444 747.97 308.054 747.916 307.671C747.863 307.288 747.734 306.919 747.537 306.586C747.341 306.253 747.08 305.962 746.771 305.729C746.461 305.497 746.108 305.328 745.733 305.231C745.358 305.135 744.968 305.114 744.584 305.169C741.237 305.634 737.476 305.115 733.409 303.616C733.047 303.483 732.661 303.422 732.275 303.437C731.888 303.452 731.509 303.543 731.157 303.705C730.806 303.866 730.491 304.095 730.228 304.379C729.966 304.662 729.762 304.995 729.628 305.357C729.494 305.719 729.433 306.104 729.448 306.49C729.463 306.876 729.554 307.255 729.716 307.605C729.878 307.956 730.108 308.271 730.392 308.533C730.676 308.795 731.009 308.999 731.371 309.132C734.81 310.455 738.456 311.16 742.141 311.213ZM632.908 282.752C642.403 282.752 651.105 278.623 658.862 270.415C659.127 270.134 659.335 269.804 659.472 269.443C659.61 269.082 659.675 268.698 659.664 268.312C659.652 267.926 659.565 267.546 659.407 267.194C659.249 266.842 659.023 266.524 658.741 266.259C658.46 265.994 658.129 265.787 657.768 265.65C657.407 265.513 657.022 265.448 656.635 265.459C656.249 265.47 655.868 265.557 655.515 265.715C655.163 265.873 654.844 266.099 654.579 266.38C646.138 275.312 636.899 278.497 626.336 276.112C625.575 275.94 624.776 276.077 624.115 276.493C623.455 276.91 622.987 277.57 622.815 278.331C622.643 279.091 622.78 279.889 623.197 280.548C623.614 281.207 624.276 281.674 625.038 281.846C627.619 282.439 630.259 282.743 632.908 282.752ZM631.402 262.401C631.903 262.4 632.396 262.272 632.834 262.028C633.272 261.783 633.64 261.431 633.904 261.005C634.167 260.579 634.317 260.093 634.34 259.592C634.363 259.092 634.257 258.594 634.033 258.146C630.06 250.061 624.361 242.943 617.336 237.293C615.98 236.223 614.524 235.285 612.989 234.493C610.904 233.387 606.82 232.055 600.568 230.453C600.193 230.357 599.803 230.335 599.42 230.389C599.037 230.443 598.668 230.572 598.335 230.768C598.001 230.965 597.71 231.225 597.478 231.534C597.245 231.843 597.076 232.194 596.98 232.568C596.884 232.943 596.862 233.332 596.917 233.715C596.972 234.097 597.101 234.465 597.299 234.797C597.496 235.13 597.757 235.42 598.066 235.652C598.376 235.883 598.729 236.052 599.104 236.147C606.223 237.972 609.118 239.096 610.292 239.718C611.496 240.341 612.638 241.078 613.702 241.919C620.041 247.032 625.183 253.468 628.766 260.776C629.011 261.265 629.387 261.676 629.852 261.963C630.318 262.25 630.854 262.402 631.402 262.401ZM652.778 232.537C653.289 232.536 653.791 232.402 654.235 232.149C654.679 231.896 655.049 231.532 655.309 231.092C655.569 230.653 655.71 230.154 655.719 229.643C655.727 229.133 655.602 228.63 655.356 228.182C650.303 218.848 643.14 210.817 634.437 204.727C626.68 199.178 619.444 197.247 612.959 199.012C612.205 199.217 611.564 199.713 611.177 200.39C610.789 201.067 610.687 201.869 610.893 202.622C611.098 203.374 611.594 204.014 612.272 204.401C612.95 204.787 613.755 204.889 614.508 204.684C619.196 203.405 624.76 205.037 631.039 209.529C639.01 215.106 645.569 222.461 650.194 231.011C650.448 231.474 650.822 231.859 651.277 232.127C651.731 232.396 652.25 232.537 652.778 232.537ZM570.04 221.249C570.61 221.248 571.168 221.083 571.645 220.773C572.123 220.463 572.5 220.021 572.731 219.501C572.962 218.981 573.037 218.405 572.946 217.843C572.856 217.282 572.604 216.758 572.222 216.337C562.559 205.678 550.54 203.111 536.501 208.701C536.141 208.843 535.812 209.055 535.534 209.324C535.256 209.593 535.034 209.915 534.88 210.27C534.727 210.625 534.645 211.007 534.639 211.394C534.634 211.78 534.705 212.164 534.849 212.524C534.992 212.883 535.205 213.21 535.476 213.487C535.746 213.764 536.069 213.985 536.425 214.137C536.782 214.289 537.164 214.37 537.552 214.374C537.939 214.378 538.324 214.306 538.683 214.161C550.361 209.51 559.904 211.511 567.856 220.282C568.132 220.587 568.469 220.83 568.845 220.997C569.222 221.163 569.629 221.249 570.04 221.249ZM576.337 181.861C576.982 181.861 577.609 181.65 578.122 181.261C578.635 180.871 579.006 180.324 579.178 179.704C579.349 179.083 579.312 178.424 579.072 177.827C578.832 177.229 578.403 176.727 577.849 176.397C564.021 168.154 551.539 166.546 540.754 171.618C540.405 171.782 540.091 172.014 539.831 172.299C539.57 172.585 539.369 172.919 539.238 173.282C539.107 173.645 539.05 174.031 539.068 174.416C539.086 174.802 539.18 175.18 539.345 175.529C539.51 175.879 539.742 176.192 540.028 176.452C540.314 176.711 540.649 176.912 541.012 177.043C541.376 177.174 541.762 177.231 542.149 177.213C542.535 177.195 542.914 177.101 543.263 176.936C552.291 172.691 562.617 174.167 574.831 181.445C575.286 181.717 575.807 181.861 576.337 181.861Z" fill="#880E4F"/>
<path d="M578.992 289.679C579.706 289.678 580.396 289.418 580.933 288.948C581.47 288.477 581.817 287.827 581.909 287.12C582.002 286.412 581.834 285.696 581.436 285.103C581.039 284.51 580.439 284.082 579.749 283.898L565.616 280.136C564.861 279.935 564.057 280.042 563.382 280.433C562.706 280.824 562.213 281.466 562.012 282.22C561.811 282.973 561.917 283.775 562.309 284.45C562.7 285.125 563.344 285.617 564.099 285.818L578.231 289.579C578.48 289.645 578.735 289.678 578.992 289.679Z" fill="#5F458D"/>
<path d="M353.866 505.138C354.021 507.509 353.802 509.89 353.218 512.193C348.075 514.074 343.933 512.879 340.793 508.607C338.041 504.844 336.078 500.565 335.022 496.026C334.198 492.499 334.904 489.128 337.142 485.915C341.268 486.936 345.023 489.095 347.977 492.146C351.451 495.622 353.544 500.239 353.866 505.138Z" fill="#FFCA28"/>
<path d="M369.938 607.478C371.939 607.479 373.938 607.312 375.911 606.978C385.119 605.509 393.999 600.133 402.274 591.003C405.77 587.02 409.046 582.849 412.087 578.509C416.096 572.782 419.116 568.526 421.08 565.835C430.286 553.082 441.397 541.814 454.024 532.422C466.568 522.994 480.606 515.732 495.556 510.939C510.5 506.178 526.188 504.171 541.852 505.017C557.88 505.893 573.085 509.658 587.042 516.206C587.748 516.538 588.558 516.575 589.293 516.311C590.028 516.047 590.627 515.502 590.959 514.796C591.291 514.09 591.329 513.282 591.064 512.549C590.799 511.815 590.253 511.217 589.547 510.885C574.901 504.015 558.961 500.064 542.17 499.147C525.794 498.257 509.392 500.355 493.769 505.337C478.196 510.328 463.571 517.89 450.504 527.71C437.399 537.456 425.868 549.15 416.312 562.384C414.305 565.133 411.347 569.302 407.277 575.119C404.371 579.267 401.241 583.256 397.902 587.066C390.555 595.17 382.832 599.92 374.954 601.177C367.309 602.475 359.075 600.741 350.45 596.033C344.315 592.707 336.776 587.064 328.035 579.256C327.747 578.998 327.41 578.799 327.045 578.671C326.68 578.543 326.293 578.487 325.907 578.509C325.52 578.53 325.142 578.627 324.793 578.794C324.444 578.961 324.132 579.196 323.874 579.484C323.616 579.772 323.417 580.108 323.289 580.472C323.161 580.837 323.107 581.223 323.128 581.609C323.15 581.995 323.248 582.372 323.416 582.721C323.584 583.069 323.819 583.38 324.108 583.637C333.189 591.748 341.104 597.656 347.632 601.196C355.288 605.374 362.767 607.478 369.938 607.478ZM356.751 563.634C357.221 563.634 357.685 563.521 358.103 563.305C358.52 563.089 358.88 562.777 359.152 562.394C359.424 562.011 359.6 561.568 359.666 561.103C359.731 560.638 359.685 560.164 359.529 559.721C357.572 554.149 353.982 548.295 348.859 542.321C346.02 538.975 341.414 534.095 335.18 527.831C328.785 520.442 322.308 511.365 315.929 500.853C308.797 489.128 301.58 475.325 294.476 459.824C290.935 452.053 287.324 443.701 283.746 435.004C265.936 391.222 250.327 368.809 236.034 366.495C235.652 366.433 235.262 366.447 234.885 366.536C234.509 366.624 234.154 366.786 233.84 367.012C233.527 367.238 233.261 367.523 233.057 367.851C232.854 368.18 232.718 368.545 232.656 368.926C232.594 369.307 232.608 369.696 232.696 370.072C232.785 370.448 232.947 370.802 233.173 371.115C233.4 371.428 233.685 371.694 234.014 371.897C234.343 372.1 234.709 372.236 235.09 372.298C243.291 373.625 257.443 385.968 278.295 437.227C281.904 446.002 285.544 454.422 289.119 462.264C296.319 477.977 303.645 491.984 310.894 503.902C317.465 514.729 324.16 524.101 330.793 531.753C330.837 531.805 330.883 531.854 330.931 531.901C337.092 538.092 341.616 542.88 344.375 546.133C349.032 551.562 352.257 556.785 353.973 561.666C354.175 562.241 354.55 562.739 355.048 563.092C355.546 563.444 356.141 563.634 356.751 563.634ZM348.743 516.004C350.62 515.978 352.478 515.623 354.231 514.953C354.682 514.788 355.086 514.515 355.408 514.158C355.729 513.802 355.958 513.372 356.074 512.906C356.731 510.306 356.977 507.619 356.803 504.942C356.431 499.344 354.044 494.07 350.081 490.091C346.742 486.653 342.505 484.218 337.85 483.062C337.271 482.918 336.662 482.953 336.103 483.163C335.545 483.373 335.064 483.748 334.724 484.238C332.001 488.148 331.137 492.339 332.154 496.694C333.304 501.612 335.431 506.25 338.409 510.332C341.175 514.095 344.686 516.004 348.743 516.004ZM350.694 509.887C347.57 510.604 345.204 509.639 343.167 506.868C340.654 503.423 338.859 499.509 337.889 495.359C337.4 493.361 337.62 491.255 338.51 489.4C341.298 490.431 343.818 492.076 345.882 494.212C348.873 497.189 350.669 501.157 350.929 505.366C351.028 506.877 350.949 508.394 350.694 509.887ZM432.954 511.371C433.457 511.371 433.952 511.242 434.39 510.995C435.059 510.621 437.562 509.07 451.522 499.955C458.105 495.663 463.863 492.554 468.636 490.714C478.363 486.846 488.774 485.776 499.612 487.524C500.382 487.645 501.168 487.457 501.799 487.001C502.43 486.544 502.854 485.857 502.978 485.089C503.102 484.322 502.917 483.536 502.462 482.905C502.007 482.273 501.32 481.847 500.552 481.72C488.648 479.801 477.187 480.986 466.486 485.242C461.359 487.217 455.23 490.516 448.3 495.035C435.566 503.349 432.142 505.515 431.511 505.867C430.943 506.186 430.497 506.683 430.242 507.281C429.987 507.88 429.938 508.546 430.103 509.175C430.268 509.805 430.637 510.362 431.153 510.759C431.669 511.156 432.302 511.371 432.954 511.371ZM314.708 486.444C315.467 486.444 316.197 486.15 316.745 485.625C317.293 485.1 317.616 484.384 317.648 483.626C318.204 470.368 317.826 457.087 316.517 443.882C316.439 443.106 316.056 442.393 315.452 441.9C314.847 441.406 314.071 441.172 313.294 441.25C312.517 441.327 311.803 441.71 311.308 442.314C310.814 442.917 310.579 443.692 310.657 444.468C311.939 457.398 312.308 470.401 311.764 483.383C311.732 484.162 312.011 484.922 312.54 485.495C313.069 486.069 313.804 486.409 314.584 486.442C314.626 486.443 314.667 486.444 314.708 486.444ZM630.691 312.146C643.719 312.146 655.939 303.29 667.098 285.727C667.306 285.401 667.448 285.037 667.516 284.656C667.583 284.275 667.574 283.885 667.49 283.507C667.406 283.13 667.249 282.772 667.026 282.456C666.803 282.139 666.52 281.87 666.193 281.663C665.866 281.455 665.501 281.315 665.119 281.249C664.737 281.183 664.346 281.192 663.968 281.278C663.59 281.363 663.233 281.521 662.917 281.745C662.6 281.968 662.331 282.251 662.125 282.579C650.427 300.989 638.423 308.544 625.439 305.68C625.062 305.596 624.672 305.588 624.291 305.655C623.91 305.723 623.546 305.864 623.22 306.072C622.894 306.279 622.612 306.549 622.391 306.865C622.169 307.182 622.012 307.539 621.929 307.916C621.845 308.293 621.837 308.682 621.904 309.062C621.972 309.443 622.113 309.806 622.321 310.131C622.529 310.457 622.8 310.738 623.117 310.959C623.433 311.181 623.791 311.337 624.168 311.421C626.31 311.898 628.497 312.141 630.691 312.146Z" fill="#FFCA28"/>
<path d="M660.429 693.38C660.461 693.38 660.494 693.38 660.527 693.379C665.642 693.21 671.29 691.893 677.315 689.461C677.382 689.434 677.448 689.405 677.512 689.374C687.628 684.402 695.286 680.805 700.274 678.683C712.652 673.238 726.203 670.99 739.679 672.147C740.456 672.21 741.226 671.963 741.821 671.461C742.416 670.958 742.787 670.24 742.853 669.465C742.918 668.69 742.674 667.92 742.172 667.325C741.67 666.729 740.952 666.357 740.176 666.289C725.729 665.051 711.203 667.459 697.931 673.289C692.895 675.432 685.172 679.057 675.01 684.05C669.666 686.196 664.728 687.358 660.334 687.502C659.562 687.527 658.83 687.854 658.298 688.413C657.765 688.971 657.473 689.716 657.486 690.487C657.498 691.259 657.814 691.994 658.364 692.535C658.915 693.076 659.656 693.38 660.429 693.38ZM808.826 594.851C809.193 594.851 809.557 594.782 809.899 594.648C817.959 591.447 825.769 587.649 833.263 583.287C846.649 575.542 856.808 566.85 863.462 557.453C865.67 554.391 869.884 546.889 876.33 534.539C881.048 525.456 885.777 518.801 890.385 514.753C890.677 514.498 890.915 514.189 891.086 513.842C891.258 513.495 891.359 513.118 891.384 512.733C891.409 512.347 891.358 511.96 891.233 511.594C891.108 511.228 890.912 510.89 890.656 510.6C890.401 510.309 890.09 510.072 889.742 509.902C889.394 509.732 889.016 509.632 888.63 509.608C888.243 509.583 887.856 509.636 887.49 509.761C887.123 509.887 886.785 510.083 886.495 510.339C881.336 514.87 876.159 522.099 871.105 531.827C864.881 543.752 860.696 551.226 858.668 554.038C852.492 562.761 842.957 570.882 830.315 578.198C823.077 582.411 815.535 586.08 807.752 589.173C807.113 589.423 806.581 589.888 806.249 590.488C805.917 591.087 805.805 591.783 805.932 592.457C806.06 593.13 806.419 593.737 806.947 594.174C807.475 594.612 808.14 594.851 808.826 594.851ZM401.032 342.765C401.275 342.765 401.518 342.735 401.754 342.675C409.765 340.656 418.201 335.986 426.829 328.795C426.87 328.761 426.91 328.725 426.949 328.689C436.149 320.128 443.175 313.743 447.834 309.713C467.235 292.73 490.804 281.192 516.133 276.279C516.513 276.205 516.874 276.057 517.196 275.844C517.518 275.631 517.795 275.356 518.011 275.036C518.227 274.716 518.378 274.356 518.455 273.978C518.532 273.599 518.533 273.21 518.459 272.831C518.385 272.452 518.237 272.091 518.023 271.77C517.809 271.448 517.534 271.171 517.213 270.956C516.893 270.74 516.533 270.59 516.154 270.513C515.775 270.436 515.384 270.435 515.005 270.509C488.661 275.621 464.147 287.619 443.966 305.28C439.275 309.339 432.215 315.752 422.993 324.333C415.072 330.925 407.441 335.178 400.313 336.975C399.617 337.15 399.01 337.574 398.604 338.165C398.199 338.757 398.024 339.476 398.112 340.187C398.2 340.898 398.546 341.553 399.083 342.027C399.621 342.502 400.314 342.765 401.032 342.765ZM843.513 257.198C850.216 257.198 856.074 256.37 860.993 254.723C865.244 253.363 869.812 251.067 874.532 247.911C877.262 246.081 881.124 243.147 886.345 238.937C886.646 238.695 886.895 238.396 887.08 238.057C887.265 237.718 887.382 237.346 887.422 236.962C887.463 236.578 887.428 236.19 887.319 235.82C887.209 235.449 887.028 235.104 886.785 234.804C886.542 234.504 886.242 234.254 885.903 234.069C885.563 233.885 885.191 233.769 884.806 233.728C884.422 233.687 884.033 233.722 883.662 233.831C883.291 233.941 882.946 234.122 882.645 234.364C877.631 238.407 873.798 241.322 871.252 243.029C866.993 245.877 862.923 247.933 859.158 249.136C853.322 251.091 845.886 251.733 837.02 251.063C836.634 251.033 836.246 251.079 835.878 251.199C835.51 251.319 835.169 251.51 834.875 251.761C834.581 252.013 834.34 252.32 834.165 252.664C833.99 253.009 833.884 253.385 833.855 253.77C833.826 254.156 833.873 254.543 833.994 254.91C834.114 255.277 834.307 255.617 834.559 255.91C834.811 256.203 835.119 256.443 835.465 256.617C835.811 256.791 836.187 256.896 836.573 256.924C838.977 257.107 841.29 257.198 843.513 257.198Z" fill="#03A9F4"/>
<path d="M654.722 692.968C655.458 692.967 656.168 692.691 656.71 692.194C657.252 691.697 657.588 691.015 657.652 690.283C657.716 689.55 657.502 688.821 657.053 688.238C656.605 687.655 655.954 687.261 655.229 687.134C654.632 687.029 654.053 686.907 653.492 686.766C648.898 685.585 644.715 683.036 641.077 679.192C637.544 675.403 634.852 670.912 633.178 666.012C631.586 661.541 630.611 656.375 630.275 650.646C630.163 648.367 630.144 645.732 630.221 642.841C630.231 642.455 630.165 642.071 630.027 641.711C629.889 641.35 629.681 641.02 629.415 640.74C629.149 640.459 628.83 640.234 628.477 640.077C628.123 639.92 627.742 639.834 627.356 639.823C626.969 639.813 626.584 639.879 626.223 640.017C625.862 640.156 625.532 640.364 625.251 640.629C624.97 640.895 624.745 641.213 624.588 641.566C624.43 641.919 624.344 642.299 624.334 642.685C624.254 645.725 624.274 648.508 624.395 650.962C624.765 657.273 625.851 662.986 627.624 667.968C629.57 673.641 632.695 678.841 636.793 683.225C641.208 687.891 646.337 690.998 652.041 692.464C652.746 692.641 653.469 692.794 654.208 692.923C654.378 692.953 654.55 692.968 654.722 692.968Z" fill="#0097A7"/>
<path d="M287.561 563.542C301.257 563.542 314.045 560.309 325.613 553.919C334.603 549.008 343.597 541.644 352.335 532.041C356.968 526.943 364.256 517.814 374.001 504.91C382.797 493.187 390.04 484.428 395.534 478.867C403.878 470.347 412.607 464.032 421.487 460.088C421.84 459.931 422.159 459.706 422.425 459.426C422.692 459.146 422.9 458.817 423.039 458.456C423.177 458.096 423.244 457.712 423.234 457.326C423.224 456.94 423.138 456.56 422.981 456.207C422.823 455.855 422.598 455.536 422.318 455.271C422.037 455.005 421.707 454.797 421.346 454.658C420.985 454.52 420.601 454.454 420.214 454.464C419.828 454.474 419.447 454.56 419.094 454.717C409.53 458.964 400.19 465.704 391.332 474.747C385.662 480.488 378.243 489.451 369.293 501.378C359.661 514.134 352.487 523.124 347.975 528.09C339.68 537.208 331.2 544.165 322.773 548.768C311.504 554.994 298.96 557.984 285.514 557.638C272.101 557.262 259.717 553.613 248.716 546.792C248.053 546.384 247.255 546.255 246.496 546.433C245.738 546.612 245.081 547.083 244.67 547.744C244.259 548.405 244.127 549.201 244.303 549.959C244.479 550.717 244.949 551.374 245.609 551.787C257.507 559.164 270.881 563.11 285.357 563.514C286.094 563.533 286.829 563.542 287.561 563.542ZM234.915 492.619C245.294 492.601 255.538 490.276 264.905 485.812C275.613 480.788 286.079 473.151 296.013 463.112C303.314 455.706 311.517 445.658 320.4 433.244C332.521 416.474 340.045 406.222 342.754 402.782C351.529 391.879 360.288 383.11 368.768 376.742C369.077 376.51 369.338 376.22 369.535 375.887C369.732 375.555 369.861 375.187 369.915 374.805C369.97 374.422 369.948 374.033 369.851 373.659C369.755 373.285 369.586 372.933 369.353 372.625C369.12 372.316 368.829 372.056 368.496 371.86C368.163 371.663 367.794 371.535 367.411 371.481C367.028 371.427 366.638 371.449 366.263 371.545C365.889 371.642 365.537 371.811 365.228 372.044C356.357 378.706 347.245 387.817 338.144 399.123C335.328 402.7 327.965 412.731 315.616 429.815C306.904 441.992 298.901 451.802 291.82 458.984C282.379 468.525 272.479 475.762 262.399 480.492C251.332 485.782 238.972 487.775 226.8 486.232C213.928 484.612 203.707 479.38 196.424 470.685C196.177 470.386 195.873 470.139 195.53 469.957C195.187 469.776 194.811 469.665 194.424 469.629C194.038 469.593 193.648 469.634 193.277 469.749C192.906 469.865 192.562 470.052 192.265 470.301C191.967 470.549 191.721 470.854 191.542 471.198C191.362 471.542 191.253 471.917 191.22 472.303C191.186 472.69 191.23 473.079 191.348 473.448C191.465 473.817 191.655 474.16 191.906 474.455C200.175 484.328 211.668 490.251 226.066 492.064C229.001 492.432 231.957 492.617 234.915 492.619ZM711.781 489.914C712.169 489.913 712.552 489.836 712.91 489.688C715.786 488.495 718.998 486.33 722.728 483.072C727.688 478.781 729.904 477.147 730.889 476.533C733.783 474.728 736.926 473.354 740.218 472.454C743.724 471.517 747.275 470.756 750.858 470.175C751.626 470.039 752.308 469.604 752.755 468.967C753.203 468.329 753.378 467.541 753.244 466.774C753.11 466.007 752.676 465.325 752.039 464.877C751.402 464.429 750.612 464.251 749.844 464.383C746.052 465.001 742.293 465.81 738.583 466.806C734.752 467.861 731.095 469.466 727.727 471.572C726.055 472.616 723.141 474.935 718.862 478.637C715.654 481.439 712.895 483.328 710.65 484.259C710.021 484.52 709.503 484.991 709.182 485.591C708.862 486.19 708.76 486.883 708.893 487.549C709.027 488.216 709.387 488.816 709.914 489.247C710.44 489.678 711.1 489.914 711.781 489.914ZM523.634 480.037C524.302 480.037 524.949 479.811 525.471 479.396C525.993 478.981 526.358 478.401 526.506 477.751C526.655 477.102 526.578 476.422 526.289 475.821C526 475.221 525.515 474.737 524.914 474.447C521.627 472.869 519.148 471.761 517.336 471.062C514.623 469.96 511.785 469.192 508.886 468.774C506.451 468.52 504.002 468.413 501.554 468.455C501.167 468.454 500.783 468.528 500.424 468.676C500.066 468.823 499.74 469.039 499.465 469.312C499.191 469.585 498.973 469.91 498.824 470.267C498.676 470.624 498.599 471.007 498.599 471.394C498.599 471.781 498.676 472.164 498.824 472.522C498.973 472.879 499.191 473.204 499.465 473.477C499.74 473.75 500.066 473.966 500.424 474.113C500.783 474.26 501.167 474.335 501.554 474.334C503.745 474.296 505.937 474.386 508.118 474.602C510.547 474.959 512.923 475.609 515.195 476.538C516.856 477.179 519.259 478.255 522.36 479.745C522.757 479.937 523.193 480.037 523.634 480.037ZM219.843 468.367C220.577 468.365 221.284 468.091 221.825 467.597C222.367 467.102 222.704 466.424 222.771 465.695C222.838 464.965 222.629 464.237 222.186 463.653C221.743 463.069 221.098 462.671 220.377 462.537C219.319 462.341 218.078 462.115 216.653 461.859C216.614 461.852 216.576 461.845 216.537 461.84C212.34 461.311 208.182 460.513 204.088 459.452C197.079 457.307 190.603 453.708 185.084 448.893C184.494 448.384 183.726 448.129 182.948 448.184C182.17 448.24 181.446 448.601 180.934 449.189C180.423 449.777 180.166 450.543 180.22 451.32C180.274 452.097 180.635 452.82 181.223 453.332C187.383 458.701 194.611 462.709 202.433 465.093C206.783 466.232 211.203 467.087 215.665 467.654C217.055 467.905 218.267 468.126 219.303 468.317C219.481 468.35 219.662 468.367 219.843 468.367ZM382.426 463.164C383.165 463.165 383.876 462.887 384.419 462.388C387.395 459.679 390.594 457.224 393.98 455.048C394.633 454.623 395.09 453.956 395.251 453.195C395.412 452.434 395.265 451.64 394.84 450.987C394.416 450.334 393.75 449.876 392.988 449.713C392.226 449.549 391.43 449.694 390.775 450.116C387.111 452.471 383.652 455.129 380.432 458.061C379.996 458.462 379.691 458.985 379.557 459.561C379.423 460.138 379.467 460.742 379.683 461.293C379.898 461.844 380.275 462.318 380.765 462.652C381.254 462.986 381.833 463.164 382.426 463.164ZM412.342 445.058C412.753 445.058 413.159 444.971 413.534 444.804C417.647 442.984 422.365 441.022 427.556 438.972C435.101 436.013 440.914 433.992 444.827 432.967C451.108 431.392 456.888 430.959 461.978 431.682C462.361 431.738 462.752 431.717 463.127 431.622C463.502 431.526 463.854 431.358 464.164 431.127C464.474 430.895 464.735 430.605 464.933 430.272C465.13 429.94 465.26 429.572 465.315 429.189C465.369 428.807 465.348 428.417 465.252 428.043C465.155 427.668 464.986 427.317 464.754 427.008C464.521 426.699 464.23 426.439 463.896 426.242C463.563 426.046 463.194 425.917 462.811 425.863C456.965 425.027 450.419 425.501 443.363 427.273C439.197 428.364 433.162 430.457 425.397 433.502C420.125 435.584 415.333 437.577 411.147 439.43C410.53 439.704 410.026 440.18 409.719 440.781C409.412 441.381 409.32 442.068 409.46 442.728C409.6 443.387 409.963 443.978 410.488 444.403C411.012 444.827 411.667 445.058 412.342 445.058ZM566.505 347.939C566.798 347.939 567.089 347.895 567.369 347.81C573.474 345.882 579.689 344.319 585.98 343.131C589.429 342.505 592.913 342.087 596.412 341.878C596.798 341.856 597.176 341.758 597.524 341.591C597.872 341.423 598.184 341.188 598.441 340.9C598.699 340.612 598.897 340.276 599.024 339.912C599.152 339.547 599.206 339.161 599.184 338.776C599.162 338.391 599.064 338.013 598.896 337.666C598.728 337.318 598.493 337.007 598.205 336.75C597.916 336.493 597.58 336.295 597.215 336.168C596.85 336.04 596.463 335.986 596.077 336.008C592.345 336.231 588.629 336.676 584.95 337.342C578.424 338.572 571.977 340.19 565.644 342.188C564.97 342.394 564.392 342.836 564.016 343.431C563.64 344.027 563.491 344.737 563.595 345.434C563.699 346.13 564.05 346.766 564.584 347.226C565.118 347.686 565.8 347.939 566.505 347.939Z" fill="white"/>
</svg>
