<svg width="38" height="30" viewBox="0 0 38 30" fill="none" xmlns="http://www.w3.org/2000/svg">
<path d="M37.7071 8.70711C38.0976 8.31658 38.0976 7.68342 37.7071 7.29289L31.3431 0.928932C30.9526 0.538408 30.3195 0.538408 29.9289 0.928932C29.5384 1.31946 29.5384 1.95262 29.9289 2.34315L35.5858 8L29.9289 13.6569C29.5384 14.0474 29.5384 14.6805 29.9289 15.0711C30.3195 15.4616 30.9526 15.4616 31.3431 15.0711L37.7071 8.70711ZM13 9L37 9L37 7L13 7L13 9Z" fill="#1D1D1D"/>
<rect x="7.5" y="7.5" width="1" height="1" fill="white" stroke="#1D1D1D"/>
<rect x="1.5" y="7.5" width="1" height="1" fill="white" stroke="#1D1D1D"/>
<path d="M0.292892 22.7071C-0.0976315 22.3166 -0.0976315 21.6834 0.292892 21.2929L6.65685 14.9289C7.04738 14.5384 7.68054 14.5384 8.07107 14.9289C8.46159 15.3195 8.46159 15.9526 8.07107 16.3431L2.41421 22L8.07107 27.6569C8.46159 28.0474 8.46159 28.6805 8.07107 29.0711C7.68054 29.4616 7.04738 29.4616 6.65685 29.0711L0.292892 22.7071ZM25 23L1 23L1 21L25 21L25 23Z" fill="#1D1D1D"/>
<rect x="-0.5" y="0.5" width="1" height="1" transform="matrix(-1 0 0 1 30 21)" fill="white" stroke="#1D1D1D"/>
<rect x="-0.5" y="0.5" width="1" height="1" transform="matrix(-1 0 0 1 36 21)" fill="white" stroke="#1D1D1D"/>
</svg>
